<svg xmlns="http://www.w3.org/2000/svg" width="522.3709" height="250" viewBox="0 0 522.3709 250">
  <g id="bead-logo">
    <g id="text">
      <g>
        <path d="M284.82946,135.188h-13.4329V114.791h12.9958v5.07014h-7.45944v2.41863H283.489v4.8077h-6.55612v3.03039h7.89654Z" fill="#fff"/>
        <path d="M303.9715,135.188l-9.61562-10.95605h-.05834V135.188H288.7613V114.791h4.31237l9.61574,10.95628h.05833V114.791H308.284v20.397Z" fill="#fff"/>
        <path d="M322.268,119.91933V135.188h-5.56535V119.91933h-5.07014V114.791H327.3381v5.12836Z" fill="#fff"/>
        <path d="M344.12019,135.188h-13.4329V114.791h12.99579v5.07014h-7.45943v2.41863h6.55611v4.8077h-6.55611v3.03039h7.89654Z" fill="#fff"/>
        <path d="M353.58815,127.6121V135.188h-5.53636V114.791h8.71242c5.39069,0,7.69254,3.17617,7.69254,6.70189a6.11731,6.11731,0,0,1-4.3707,6.11924l5.65279,7.57588H358.8914Zm0-3.55506h2.41852c1.69,0,2.70984-.69932,2.70984-2.2144,0-1.51532-1.01987-2.15619-2.70984-2.15619h-2.41852Z" fill="#fff"/>
        <path d="M377.24655,119.91933V135.188h-5.56547V119.91933h-5.07014V114.791h15.70564v5.12836Z" fill="#fff"/>
        <path d="M388.78419,131.66226l-1.19465,3.52572h-6.14823l7.92565-20.397h5.886l7.89642,20.397h-6.119l-1.19464-3.52572ZM392.31,121.17243l-1.95231,5.82768h3.9336Z" fill="#fff"/>
        <path d="M405.33235,135.188V114.791h5.59457v20.397Z" fill="#fff"/>
        <path d="M430.50677,135.188l-9.61562-10.95605h-.05834V135.188h-5.53624V114.791h4.31237l9.61574,10.95628h.05833V114.791h5.53624v20.397Z" fill="#fff"/>
        <path d="M458.4773,135.188l-2.6224-10.46073h-.05822l-3.35094,7.69255h-3.64228l-3.35095-7.69255h-.05833l-2.6224,10.46073h-5.478l5.59457-20.397h3.96283l3.75883,9.17874h.0291L454.398,114.791h3.96282l5.59458,20.397Z" fill="#fff"/>
        <path d="M479.86226,135.188H466.42948V114.791h12.99567v5.07014h-7.45943v2.41863h6.55611v4.8077h-6.55611v3.03039h7.89654Z" fill="#fff"/>
        <path d="M499.00417,135.188l-9.61562-10.95605h-.05833V135.188H483.794V114.791h4.31237l9.61573,10.95628h.05834V114.791h5.53624v20.397Z" fill="#fff"/>
        <path d="M517.30087,119.91933V135.188H511.7354V119.91933h-5.07014V114.791H522.3709v5.12836Z" fill="#fff"/>
      </g>
      <g>
        <path d="M291.72925,162.28805c-1.22375,1.71932-2.36018,3.322-3.49661,4.6915l3.29261,4.31236h-6.323l-.69932-.90332a9.97129,9.97129,0,0,1-5.15748,1.34043c-4.74959,0-8.39186-2.65174-8.39186-7.22633a6.32941,6.32941,0,0,1,4.45815-6.323,6.71834,6.71834,0,0,1-.43711-2.38929c0-3.118,2.12708-4.60393,5.59458-4.60393a22.68865,22.68865,0,0,1,5.65291.90332l-1.3112,4.57459a12.52369,12.52369,0,0,0-3.23439-.72843c-.49533,0-.87421.11667-.87421.816a1.61716,1.61716,0,0,0,.4371,1.078l3.70061,4.837c.78665-.96154,1.60264-2.098,2.53507-3.35083Zm-10.60638,3.72972-3.0304-3.87526a2.10146,2.10146,0,0,0-1.9523,2.098c0,1.282,1.01987,2.24351,2.88473,2.24351A4.69944,4.69944,0,0,0,281.12287,166.01777Z" fill="#fff"/>
        <path d="M306.50328,167.76619l-1.19464,3.52572H299.1604l7.92565-20.397h5.886l7.89654,20.397h-6.11913l-1.19464-3.52572Zm3.52572-10.48983-1.95218,5.82769h3.93371Z" fill="#fff"/>
        <path d="M328.95941,163.716v7.57587h-5.53624v-20.397h8.7123c5.39057,0,7.69254,3.17618,7.69254,6.7019a6.11744,6.11744,0,0,1-4.37071,6.11924l5.6528,7.57587h-6.84756Zm0-3.55506h2.41852c1.69,0,2.70984-.69932,2.70984-2.2144,0-1.51532-1.01988-2.15619-2.70984-2.15619h-2.41852Z" fill="#fff"/>
        <path d="M352.98907,156.02327v15.26864h-5.56535V156.02327h-5.07015V150.8949h15.70564v5.12837Z" fill="#fff"/>
        <path d="M375.18732,152.17711l-2.38929,4.92437a10.121,10.121,0,0,0-4.9827-1.57354c-.845,0-1.253.204-1.253.69932,0,.37889.2331.67022,1.0782,1.10732l4.19594,2.15619c2.15618,1.10732,3.78793,2.56418,3.78793,5.76946,0,4.19593-2.79729,6.46879-8.013,6.46879a17.31947,17.31947,0,0,1-8.625-2.302l2.535-5.30326c2.506,1.69,4.39993,2.44775,6.38134,2.44775,1.049,0,1.7192-.204,1.7192-.816,0-.52444-.43711-.81576-.99077-1.10709l-4.45815-2.24374a6.175,6.175,0,0,1-3.61316-5.76947c0-3.64216,2.53507-6.17723,7.66343-6.17723A15.34039,15.34039,0,0,1,375.18732,152.17711Z" fill="#fff"/>
        <path d="M394.37959,150.8949c6.49789,0,10.89782,3.84639,10.89782,10.19851,0,6.35235-4.39993,10.1985-10.89782,10.1985h-6.96411v-20.397Zm-1.42776,15.44354h1.45687c3.05962,0,5.09925-1.74842,5.09925-5.245s-2.03963-5.2448-5.09925-5.2448h-1.45687Z" fill="#fff"/>
        <path d="M408.53505,171.29191v-20.397h5.59457v20.397Z" fill="#fff"/>
        <path d="M433.56345,152.17711l-2.38929,4.92437a10.121,10.121,0,0,0-4.9827-1.57354c-.845,0-1.253.204-1.253.69932,0,.37889.23311.67022,1.07821,1.10732l4.19593,2.15619c2.15619,1.10732,3.78794,2.56418,3.78794,5.76946,0,4.19593-2.79729,6.46879-8.013,6.46879a17.31943,17.31943,0,0,1-8.625-2.302l2.53495-5.30326c2.506,1.69,4.39993,2.44775,6.38135,2.44775,1.049,0,1.71919-.204,1.71919-.816,0-.52444-.4371-.81576-.99076-1.10709l-4.45815-2.24374a6.175,6.175,0,0,1-3.61316-5.76947c0-3.64216,2.53507-6.17723,7.66343-6.17723A15.34038,15.34038,0,0,1,433.56345,152.17711Z" fill="#fff"/>
        <path d="M446.84869,156.02327v15.26864h-5.56535V156.02327H436.2132V150.8949h15.70564v5.12837Z" fill="#fff"/>
        <path d="M460.81518,163.716v7.57587h-5.53636v-20.397h8.71242c5.39069,0,7.69254,3.17618,7.69254,6.7019a6.11731,6.11731,0,0,1-4.3707,6.11924l5.65279,7.57587h-6.84744Zm0-3.55506h2.41852c1.69,0,2.70984-.69932,2.70984-2.2144,0-1.51532-1.01987-2.15619-2.70984-2.15619h-2.41852Z" fill="#fff"/>
        <path d="M475.93218,171.29191v-20.397h5.59458v20.397Z" fill="#fff"/>
        <path d="M503.89274,152.70154l-2.91384,4.837a7.37949,7.37949,0,0,0-4.45815-1.54442c-3.00129,0-5.56547,1.77753-5.56547,5.09925s2.56418,5.09925,5.56547,5.09925a7.37927,7.37927,0,0,0,4.45815-1.54419l2.91384,4.8368a13.03762,13.03762,0,0,1-7.54688,2.24375c-6.323,0-11.21826-4.16682-11.21826-10.63561s4.89525-10.63538,11.21826-10.63538A13.03937,13.03937,0,0,1,503.89274,152.70154Z" fill="#fff"/>
        <path d="M517.30075,156.02327v15.26864H511.7354V156.02327h-5.07014V150.8949H522.3709v5.12837Z" fill="#fff"/>
      </g>
      <g>
        <path d="M283.68365,88.30265c2.01063.32043,4.02116,1.31108,4.02116,5.12836,0,4.37059-3.29273,5.65279-7.34289,5.65279h-9.00385v-20.397h8.97475c3.87538,0,6.55611,1.69021,6.55611,4.89549a4.48526,4.48526,0,0,1-3.20528,4.66215Zm-6.78923-1.71932h2.506c1.13631,0,1.95218-.52443,1.95218-1.57329,0-1.13643-.641-1.60265-1.95218-1.60265h-2.506Zm2.56418,7.78011c1.5152,0,2.6224-.52443,2.6224-1.95242,0-1.34019-1.13631-1.80641-2.6224-1.80641h-2.56418v3.75883Z" fill="#fff"/>
        <path d="M306.78815,93.95544V99.0838H293.55937v-20.397h5.53624V93.95544Z" fill="#fff"/>
        <path d="M332.632,88.8853c0,6.26479-4.80792,10.63561-10.86872,10.63561s-10.8686-4.37082-10.8686-10.63561,4.80781-10.63538,10.8686-10.63538S332.632,82.62051,332.632,88.8853Zm-15.90963,0a5.04131,5.04131,0,1,0,5.04091-5.09925A4.912,4.912,0,0,0,316.72233,88.8853Z" fill="#fff"/>
        <path d="M358.62073,88.8853c0,6.26479-4.80792,10.63561-10.86872,10.63561s-10.8686-4.37082-10.8686-10.63561,4.80781-10.63538,10.8686-10.63538S358.62073,82.62051,358.62073,88.8853Zm-15.90963,0a5.04131,5.04131,0,1,0,5.04091-5.09925A4.912,4.912,0,0,0,342.7111,88.8853Z" fill="#fff"/>
        <path d="M383.47307,99.0838l-2.62239-10.46072h-.05822l-3.351,7.69254h-3.64227l-3.351-7.69254H370.39l-2.6224,10.46072h-5.478l5.59458-20.397h3.96282l3.75883,9.17875h.02911l3.75894-9.17875h3.96283l5.59457,20.397Z" fill="#fff"/>
        <path d="M394.22207,99.0838v-20.397h5.59458v20.397Z" fill="#fff"/>
        <path d="M422.48475,99.0838l-9.61574-10.956h-.05821v10.956h-5.53636v-20.397h4.3126l9.61562,10.95628h.05822V78.68679h5.53636v20.397Z" fill="#fff"/>
        <path d="M452.69891,86.99133c.05822.78688.08733,1.63175.08733,2.21464,0,6.17722-3.43827,10.31494-9.93617,10.31494-6.64356,0-11.0726-4.3126-11.0726-10.66472,0-6.119,4.10861-10.60627,11.16-10.60627a13.61534,13.61534,0,0,1,8.27531,2.65151L448.06588,85.68a8.3103,8.3103,0,0,0-5.12837-1.894c-3.29261,0-5.33236,2.06885-5.33236,5.15747a5.06781,5.06781,0,0,0,5.478,5.33236c2.5934,0,3.72971-1.22376,3.96282-2.6224H442.18V86.99133Z" fill="#fff"/>
        <path d="M467.38209,83.81515V99.0838h-5.56535V83.81515H456.7466V78.68679h15.70564v5.12836Z" fill="#fff"/>
        <path d="M497.56773,88.8853c0,6.26479-4.80792,10.63561-10.86871,10.63561s-10.8686-4.37082-10.8686-10.63561,4.80781-10.63538,10.8686-10.63538S497.56773,82.62051,497.56773,88.8853Zm-15.90963,0a5.04131,5.04131,0,1,0,5.04092-5.09925A4.912,4.912,0,0,0,481.6581,88.8853Z" fill="#fff"/>
        <path d="M518.05841,99.0838l-9.61574-10.956h-.05821v10.956H502.8481v-20.397h4.3126l9.61562,10.95628h.05822V78.68679h5.53636v20.397Z" fill="#fff"/>
      </g>
    </g>
    <g id="shape">
      <path d="M89.443,118.42584c0-2.771-1.90149-2.98816-3.91174-2.98816H83.94751v6.085h1.58374C87.5415,121.52264,89.443,121.251,89.443,118.42584Z" fill="#fff"/>
      <polygon points="135.672 117.448 133.619 127.39 138.299 127.39 135.975 117.448 135.672 117.448" fill="#fff"/>
      <path d="M160.178,115.65485v18.68963h2.50738c3.04249,0,4.34644-2.77075,4.34644-9.12732,0-6.30237-1.30395-9.56231-4.34644-9.56231Z" fill="#fff"/>
      <path d="M85.85718,128.31378H83.94751v6.24811h1.90967c2.11889,0,4.07483-.21741,4.07483-3.15131C89.932,128.53113,87.97607,128.31378,85.85718,128.31378Z" fill="#fff"/>
      <path d="M125,0,0,125,125,250,250,125Zm71.991,86.342V95.6756l-2.33338-2.33344-10.41027,10.41028V99.08563h-4.66681l10.41027-10.41021L187.65747,86.342Zm-12.9964-13.00159L167.58289,89.75208h9.33367L167.583,99.08563H148.91571l-.00006-18.66723,9.33362-9.33356v9.33362L174.661,64.00677v9.33362Zm-8.759,51.76807c0,7.7691-1.73853,16.19031-12.55024,16.19031H151.97424V108.70056h10.71118C173.49713,108.70056,175.23566,117.33917,175.23566,125.10846ZM122.66663,21.3512V16.68439L161.3335,55.35126l2.33343-2.33338v9.33356h-9.33362l2.33344-2.33337L117.99988,21.3512ZM83.8028,99.08282l3.29992-3.29992L83.8028,92.483h50.80792V89.183l6.59985,6.59986-6.59985,6.59985V99.08282Zm24.845,58.44391,3.29992-3.29992-3.29992-3.29993h19.08068V147.627l6.59986,6.59986-6.59986,6.59985v-3.29993Zm10.9234-41.87188h-9.84192v5.86779h6.74505v6.79114h-6.74505v6.0307h9.84192v6.95429H101.52539V108.70056h18.04578ZM98.1358,132.932c0,4.18329-2.17315,8.36676-11.73529,8.36676H75.74365V108.70056H86.50922c9.50775,0,11.13763,5.48755,11.13763,8.856,0,1.41248-.54321,6.13916-3.74872,7.769v.54346C97.21222,127.17285,98.1358,130.48706,98.1358,132.932Zm27.55365-58.82044-3.29992,3.29993,3.29992,3.29993H105.80621v3.29992L99.20636,77.4115l6.59985-6.59985v3.29992Zm12.22119,3.30609-3.29992,3.29993V60.77917h-3.29993l6.59985-6.59985,6.59986,6.59985h-3.29993V80.71759ZM94.60675,44.75372l9.33356-9.33362h18.66723l-.00006,18.66718-9.33355,9.33356V54.08728L68.26752,99.09369l.00006-9.33362H58.934l45.00641-45.00641ZM55.84821,125.03046,62.448,118.4306l6.59985,6.59986H65.74792v16.26831L62.448,137.99884l-3.29993,3.29993V125.03046Zm-8.22406-28.577V91.78662l12.48992,12.48993,2.33338-2.33337v9.33355H53.11389l2.33338-2.33337L42.9574,96.45343Zm3.04846,38.46869L37.473,148.12189,24.27325,134.92212V121.72247l6.59986,6.59986V108.53772l6.59985,6.59985,6.59979-6.59985v19.78461l6.59986-6.59986Zm2.34594,28.72626v-9.33362l2.33338,2.33337,10.40063-10.40057v4.66681h4.66681L60.01874,161.31494l2.33343,2.33344Zm13.40833,13.42279,16.82324-16.82325-9.33362.00007,9.33356-9.33362H101.9173l-.00006,18.66717-9.33356,9.33356v-9.33356L75.76044,186.40479l.00006-9.33362Zm23.61005,23.61468v-9.33362l2.33337,2.33344,12.61041-12.61041v4.66681h4.66681L97.03711,198.35248l2.33337,2.33337Zm44.29675,25.62952H115.66644l-9.33355-9.33356h9.33355L103.958,205.27332h9.33362v-9.33368l11.70843,11.70849v-9.33362l9.33362,9.33356Zm.04254-38.33032v4.66681L115.835,174.1106l-2.33343,2.33343v-9.33362h9.33362l-2.33338,2.33344,18.5412,18.5412Zm5.17267-53.80347h-7.45148l-1.5755,7.11719h-7.93225l7.17163-32.59821h12.12384l7.17151,32.59821h-7.93213ZM159.90771,200.746l-2.33343-2.33343L145.82977,210.1571v-4.6668H141.163l11.74457-11.74457-2.33343-2.33338h9.33361Zm11.07947-20.41778v9.33361L150.902,169.57666v9.33362l-9.33356-9.33362V150.90948h18.66718l9.33355,9.33362-9.33355-.00006,20.08514,20.08521Zm33.06324-23.72669-13.19977,13.19977-13.19971-13.19971V143.40192l6.59985,6.59985V112.26941l6.59992,6.59985,6.59985-6.59985v37.7323l6.59986-6.59985Zm-.73163-50.732,6.59985-6.59986,6.59979,6.59986h-3.29992v17.47107l-3.29987-3.29993-3.29993,3.29993V105.86951Zm25.33007,21.46386L213.5152,142.467v-4.66681h-4.66681l15.13367-15.13367-2.33344-2.33337h9.33362v9.33362Z" fill="#fff"/>
    </g>
  </g>
</svg>
