<svg id="footer-logo" xmlns="http://www.w3.org/2000/svg" width="1274" height="1274" viewBox="0 0 1274 1274">
  <title>footer</title>
  <rect id="bg-color" width="1274" height="1274" style="fill: #001e4b"/>
  <g>
    <g>
      <g>
        <polygon points="9.119 580.721 3.051 586.789 35.175 586.789 35.175 592.856 47.31 580.721 35.175 568.586 35.175 574.654 3.051 574.654 9.119 580.721" style="fill: #ff4164"/>
        <polygon points="52.489 282.31 52.489 273.729 -29.92 356.138 -34.21 351.848 -34.21 369.009 -17.049 369.009 -21.339 364.719 61.069 282.31 52.489 282.31" style="fill: #ff4164"/>
        <polygon points="190.579 420.291 190.579 411.71 119.482 482.807 115.192 478.516 115.192 495.678 132.354 495.678 128.063 491.388 199.16 420.291 190.579 420.291" style="fill: #ff4164"/>
        <polygon points="-23.536 587.334 -32.117 587.334 -4.29 615.16 -8.581 619.451 8.581 619.451 8.581 602.289 4.29 606.58 -23.536 578.753 -23.536 587.334" style="fill: #0f9bff"/>
        <polygon points="18.054 503.925 9.473 503.925 58.209 552.661 53.919 556.951 71.08 556.951 71.08 539.79 66.79 544.08 18.054 495.344 18.054 503.925" style="fill: #0f9bff"/>
        <polygon points="64.796 320.267 64.796 303.106 147.549 385.859 147.549 368.697 164.711 385.859 164.711 420.182 130.387 420.182 113.226 403.021 130.387 403.021 47.634 320.267 64.796 320.267" style="fill: #8c28ff"/>
        <polygon points="94.987 515.893 94.987 533.055 26.776 464.844 26.776 482.006 9.614 464.844 9.614 430.521 43.938 430.521 61.099 447.682 43.938 447.682 112.148 515.893 94.987 515.893" style="fill: #8c28ff"/>
        <polygon points="11.273 545.661 23.408 557.796 -45.971 557.796 -33.836 569.931 -58.106 569.931 -82.376 545.661 -58.106 521.391 -33.836 521.391 -45.971 533.526 23.408 533.526 11.273 545.661" style="fill: #8c28ff"/>
        <polygon points="18.134 263.645 30.269 275.78 -6.109 275.78 6.026 287.915 -18.244 287.915 -42.514 263.645 -18.244 239.375 6.026 239.375 -6.109 251.51 30.269 251.51 18.134 263.645" style="fill: #8c28ff"/>
        <polygon points="33.805 404.879 21.67 417.014 21.67 372.68 9.535 384.815 9.535 360.545 33.805 336.275 58.075 360.545 58.075 384.815 45.94 372.68 45.94 417.014 33.805 404.879" style="fill: #8c28ff"/>
        <polygon points="75.998 448.32 69.93 454.388 118.083 454.388 118.083 460.455 130.218 448.32 118.083 436.185 118.083 442.253 69.93 442.253 75.998 448.32" style="fill: #0f9bff"/>
        <polygon points="87.501 419.781 93.569 425.849 93.569 389.29 99.636 389.29 87.501 377.155 75.366 389.29 81.433 389.29 81.433 425.849 87.501 419.781" style="fill: #ff4164"/>
        <polygon points="-4.069 479.515 -4.069 470.934 -29.92 496.785 -34.21 492.495 -34.21 509.657 -17.049 509.657 -21.339 505.366 4.512 479.515 -4.069 479.515" style="fill: #ff4164"/>
      </g>
      <rect x="-150.11195" y="274.46933" width="300.22389" height="300.22389" transform="translate(300.2243 124.35698) rotate(45)" style="fill: none"/>
    </g>
    <g>
      <g>
        <polygon points="580.721 433.7 586.788 427.632 586.788 459.756 592.856 459.756 580.721 471.892 568.585 459.756 574.653 459.756 574.653 427.632 580.721 433.7" style="fill: #ff4164"/>
        <polygon points="282.31 477.07 273.729 477.07 356.137 394.661 351.847 390.371 369.009 390.371 369.009 407.532 364.718 403.242 282.31 485.651 282.31 477.07" style="fill: #ff4164"/>
        <polygon points="387.771 312.895 387.771 321.476 364.584 298.289 360.294 302.579 360.294 285.418 377.456 285.418 373.165 289.708 396.352 312.895 387.771 312.895" style="fill: #ff4164"/>
        <polygon points="448.354 409.85 454.422 415.917 396.361 415.917 396.361 421.985 384.226 409.85 396.361 397.715 396.361 403.782 454.422 403.782 448.354 409.85" style="fill: #0f9bff"/>
        <polygon points="420.29 615.16 411.71 615.16 482.806 544.064 478.516 539.773 495.678 539.773 495.678 556.935 491.387 552.644 420.29 623.741 420.29 615.16" style="fill: #ff4164"/>
        <polygon points="462.88 276.584 462.88 268.003 484.475 289.598 488.766 285.307 488.766 302.469 471.604 302.469 475.894 298.178 454.3 276.584 462.88 276.584" style="fill: #ff4164"/>
        <polygon points="587.334 401.045 587.334 392.465 615.16 420.291 619.45 416 619.45 433.162 602.289 433.162 606.579 428.872 578.753 401.045 587.334 401.045" style="fill: #0f9bff"/>
        <polygon points="503.924 442.635 503.924 434.054 552.66 482.79 556.951 478.5 556.951 495.662 539.789 495.662 544.079 491.371 495.343 442.635 503.924 442.635" style="fill: #0f9bff"/>
        <polygon points="509.137 322.849 509.137 305.688 472.207 342.618 472.207 325.456 455.045 342.618 455.045 376.941 489.369 376.941 506.53 359.78 489.369 359.78 526.299 322.849 509.137 322.849" style="fill: #8c28ff"/>
        <polygon points="334.044 328.838 316.882 328.838 347.815 359.771 330.653 359.771 347.815 376.932 382.138 376.933 382.138 342.609 364.977 325.447 364.977 342.609 334.044 311.676 334.044 328.838" style="fill: #8c28ff"/>
        <polygon points="320.267 489.377 303.105 489.377 385.858 572.13 368.697 572.13 385.858 589.292 420.182 589.292 420.182 554.968 403.02 537.807 403.02 554.969 320.267 472.215 320.267 489.377" style="fill: #8c28ff"/>
        <polygon points="403.052 276.983 403.052 294.144 424.581 272.616 424.581 289.778 441.743 272.616 441.743 238.293 407.419 238.293 390.257 255.454 407.419 255.454 385.891 276.983 403.052 276.983" style="fill: #8c28ff"/>
        <polygon points="515.892 519.568 533.054 519.568 464.843 451.357 482.005 451.357 464.844 434.196 430.52 434.196 430.52 468.519 447.682 485.681 447.682 468.519 515.892 536.73 515.892 519.568" style="fill: #8c28ff"/>
        <polygon points="545.66 435.854 557.796 447.989 557.796 378.611 569.931 390.746 569.931 366.476 545.66 342.205 521.39 366.475 521.39 390.746 533.525 378.611 533.525 447.989 545.66 435.854" style="fill: #8c28ff"/>
        <polygon points="263.645 442.715 275.78 454.85 275.78 418.472 287.915 430.608 287.915 406.337 263.645 382.067 239.374 406.337 239.374 430.608 251.51 418.472 251.51 454.85 263.645 442.715" style="fill: #8c28ff"/>
        <polygon points="404.878 458.386 417.013 446.251 372.68 446.251 384.815 434.116 360.545 434.116 336.274 458.386 360.544 482.657 384.815 482.657 372.68 470.522 417.013 470.522 404.878 458.386" style="fill: #8c28ff"/>
        <polygon points="448.32 500.579 454.387 494.511 454.387 542.664 460.455 542.664 448.32 554.799 436.184 542.664 442.252 542.664 442.252 494.511 448.32 500.579" style="fill: #0f9bff"/>
        <polygon points="441.821 308.771 450.402 308.771 416.31 342.862 420.6 347.153 403.439 347.153 403.439 329.991 407.729 334.282 441.821 300.19 441.821 308.771" style="fill: #0f9bff"/>
        <polygon points="419.781 512.082 425.848 518.15 389.289 518.15 389.289 524.217 377.154 512.082 389.289 499.947 389.289 506.015 425.848 506.015 419.781 512.082" style="fill: #ff4164"/>
        <polygon points="479.514 420.513 470.934 420.513 496.785 394.661 492.495 390.371 509.656 390.371 509.656 407.532 505.366 403.242 479.514 429.093 479.514 420.513" style="fill: #ff4164"/>
        <polygon points="324.067 395.965 324.067 404.546 291.215 371.694 286.924 375.984 286.924 358.822 304.086 358.822 299.796 363.113 332.648 395.965 324.067 395.965" style="fill: #0f9bff"/>
        <polygon points="400.581 370.842 394.514 364.774 429.598 364.774 429.598 358.707 441.733 370.842 429.598 382.977 429.598 376.909 394.514 376.909 400.581 370.842" style="fill: #ff4164"/>
      </g>
      <rect x="274.46876" y="274.46933" width="300.22389" height="300.22389" transform="translate(424.58111 -175.86692) rotate(45)" style="fill: none"/>
    </g>
    <g>
      <g>
        <polygon points="368.43 627.753 374.498 633.82 374.498 601.696 380.565 601.696 368.43 589.561 356.295 601.696 362.363 601.696 362.363 633.82 368.43 627.753" style="fill: #ff4164"/>
        <polygon points="70.019 584.383 61.439 584.383 84.404 607.348 80.113 611.639 97.275 611.639 97.275 594.477 92.985 598.767 70.019 575.802 70.019 584.383" style="fill: #ff4164"/>
        <polygon points="175.481 748.558 175.481 739.977 152.294 763.164 148.004 758.874 148.004 776.035 165.165 776.035 160.875 771.745 184.062 748.558 175.481 748.558" style="fill: #0f9bff"/>
        <polygon points="142.609 583.15 136.541 589.218 229.962 589.218 229.962 595.285 242.097 583.15 229.962 571.015 229.962 577.083 136.541 577.083 142.609 583.15" style="fill: #0f9bff"/>
        <polygon points="208 446.293 199.419 446.293 270.516 517.389 266.226 521.68 283.387 521.68 283.387 504.518 279.097 508.808 208 437.712 208 446.293" style="fill: #ff4164"/>
        <polygon points="250.59 784.869 250.59 793.45 272.185 771.855 276.475 776.146 276.475 758.984 259.313 758.984 263.604 763.275 242.009 784.869 250.59 784.869" style="fill: #0f9bff"/>
        <polygon points="375.043 660.407 375.043 668.988 402.87 641.162 407.16 645.452 407.16 628.291 389.998 628.291 394.289 632.581 366.462 660.407 375.043 660.407" style="fill: #0f9bff"/>
        <polygon points="321.229 589.223 321.229 597.804 340.37 578.662 344.66 582.953 344.66 565.791 327.499 565.791 331.789 570.082 312.648 589.223 321.229 589.223" style="fill: #0f9bff"/>
        <polygon points="296.847 738.604 296.847 755.765 259.916 718.835 259.916 735.996 242.755 718.835 242.755 684.511 277.078 684.511 294.24 701.673 277.078 701.673 314.009 738.604 296.847 738.604" style="fill: #8c28ff"/>
        <polygon points="121.754 732.615 104.592 732.615 135.525 701.682 118.363 701.682 135.525 684.52 169.848 684.52 169.848 718.844 152.686 736.005 152.686 718.844 121.754 749.777 121.754 732.615" style="fill: #8c28ff"/>
        <polygon points="107.976 572.076 90.815 572.076 173.568 489.323 156.406 489.323 173.568 472.161 207.891 472.161 207.891 506.484 190.73 523.646 190.73 506.484 107.976 589.238 107.976 572.076" style="fill: #8c28ff"/>
        <polygon points="190.762 784.47 190.762 767.308 212.291 788.837 212.291 771.675 229.452 788.837 229.452 823.16 195.129 823.16 177.967 805.999 195.129 805.999 173.6 784.47 190.762 784.47" style="fill: #8c28ff"/>
        <polygon points="303.602 541.885 320.764 541.885 290.588 572.061 307.749 572.061 290.588 589.223 256.264 589.223 256.264 554.899 273.426 537.738 273.426 554.9 303.602 524.723 303.602 541.885" style="fill: #8c28ff"/>
        <polygon points="333.37 625.599 345.505 613.464 345.505 682.842 357.64 670.707 357.64 694.977 333.37 719.248 309.1 694.977 309.1 670.707 321.235 682.842 321.235 613.464 333.37 625.599" style="fill: #8c28ff"/>
        <polygon points="51.354 618.738 63.489 606.602 63.489 642.98 75.625 630.845 75.625 655.116 51.354 679.386 27.084 655.116 27.084 630.845 39.219 642.98 39.219 606.602 51.354 618.738" style="fill: #8c28ff"/>
        <polygon points="236.029 549.382 242.097 555.45 242.097 518.789 248.164 518.789 236.029 506.654 223.894 518.789 229.962 518.789 229.962 555.45 236.029 549.382" style="fill: #0f9bff"/>
        <polygon points="229.53 752.682 238.111 752.682 204.02 718.591 208.31 714.3 191.148 714.3 191.148 731.462 195.439 727.171 229.53 761.263 229.53 752.682" style="fill: #ff4164"/>
        <polygon points="207.491 549.371 213.558 543.303 176.999 543.303 176.999 537.236 164.864 549.371 176.999 561.506 176.999 555.438 213.558 555.438 207.491 549.371" style="fill: #ff4164"/>
        <polygon points="103.352 684.52 103.352 675.94 84.228 695.063 79.938 690.773 79.938 707.934 97.1 707.934 92.809 703.644 111.933 684.52 103.352 684.52" style="fill: #ff4164"/>
        <polygon points="97.276 660.773 103.344 666.84 103.344 636.928 109.411 636.928 97.276 624.793 85.141 636.928 91.208 636.928 91.208 666.84 97.276 660.773" style="fill: #0f9bff"/>
        <polygon points="188.291 690.611 182.223 696.679 217.307 696.679 217.307 702.746 229.442 690.611 217.307 678.476 217.307 684.543 182.223 684.543 188.291 690.611" style="fill: #0f9bff"/>
        <g>
          <path d="M121.72271,606.90192h19.79462c17.48191,0,20.47875,10.08992,20.47875,16.28347,0,2.59715-.9988,11.28814-6.89279,14.285v.99924c6.09362,2.39731,7.79189,8.49114,7.79189,12.98663,0,7.69176-3.99587,15.38394-21.5777,15.38394H121.72271Zm25.189,17.88181c0-5.095-3.49625-5.49429-7.19257-5.49429h-2.912v11.18844h2.912C143.41545,630.47788,146.9117,629.97847,146.9117,624.78373Zm.8991,23.87509c0-5.29445-3.59639-5.69414-7.49234-5.69414H136.8071V654.4531h3.51136C144.21441,654.4531,147.8108,654.05341,147.8108,648.65882Z" style="fill: #ff4164"/>
          <path d="M169.12758,666.84019V606.90192H202.3083V619.6887H184.212v10.78918h12.4022v12.4868H184.212v11.08873H202.3083v12.78678Z" style="fill: #ff4164"/>
          <path d="M256.7443,666.84019H242.15953l-2.89714-13.08634h-13.701l-2.89693,13.08634h-14.585L221.266,606.90192H243.558Zm-24.05378-43.85465h-.557l-3.77487,18.28108h8.60617Z" style="fill: #ff4164"/>
          <path d="M261.88789,606.90192h19.69469c19.87943,0,23.07613,15.88377,23.07613,30.1692,0,14.285-3.1967,29.76907-23.07613,29.76907H261.88789ZM289.57432,637.271c0-11.58814-2.39752-17.58227-7.99174-17.58227h-4.61031v34.36471h4.61031C287.1768,654.05341,289.57432,648.95881,289.57432,637.271Z" style="fill: #ff4164"/>
        </g>
      </g>
      <rect x="62.1784" y="486.75969" width="300.22389" height="300.22389" transform="translate(-388.15785 336.64733) rotate(-45)" style="fill: none"/>
    </g>
    <g>
      <g>
        <polygon points="415.462 693.022 421.53 686.955 389.406 686.955 389.406 680.887 377.27 693.022 389.406 705.157 389.406 699.09 421.53 699.09 415.462 693.022" style="fill: #ff4164"/>
        <polygon points="372.092 991.433 372.092 1000.014 454.501 917.605 458.791 921.896 458.791 904.734 441.629 904.734 445.92 909.024 363.511 991.433 372.092 991.433" style="fill: #ff4164"/>
        <polygon points="536.267 885.971 527.686 885.971 550.873 909.158 546.583 913.449 563.744 913.449 563.744 896.287 559.454 900.577 536.267 877.391 536.267 885.971" style="fill: #ff4164"/>
        <polygon points="439.312 825.389 433.245 819.321 433.245 877.382 427.177 877.382 439.312 889.517 451.447 877.382 445.38 877.382 445.38 819.321 439.312 825.389" style="fill: #0f9bff"/>
        <polygon points="234.002 853.452 234.002 862.033 305.098 790.936 309.389 795.227 309.389 778.065 292.227 778.065 296.518 782.356 225.421 853.452 234.002 853.452" style="fill: #ff4164"/>
        <polygon points="572.578 810.862 581.159 810.862 559.564 789.268 563.855 784.977 546.693 784.977 546.693 802.139 550.984 797.848 572.578 819.443 572.578 810.862" style="fill: #ff4164"/>
        <polygon points="448.117 686.409 456.697 686.409 428.871 658.583 433.162 654.292 416 654.292 416 671.454 420.29 667.164 448.117 694.99 448.117 686.409" style="fill: #0f9bff"/>
        <polygon points="406.527 769.818 415.107 769.818 366.371 721.082 370.662 716.792 353.5 716.792 353.5 733.954 357.791 729.663 406.527 778.399 406.527 769.818" style="fill: #0f9bff"/>
        <polygon points="526.313 764.605 543.474 764.605 506.544 801.536 523.706 801.536 506.544 818.697 472.22 818.698 472.221 784.374 489.382 767.213 489.382 784.374 526.313 747.444 526.313 764.605" style="fill: #8c28ff"/>
        <polygon points="520.324 939.699 520.324 956.86 489.391 925.928 489.391 943.089 472.23 925.928 472.229 891.604 506.553 891.604 523.714 908.766 506.553 908.766 537.486 939.699 520.324 939.699" style="fill: #8c28ff"/>
        <polygon points="359.785 953.476 359.785 970.638 277.032 887.884 277.032 905.046 259.87 887.884 259.87 853.561 294.193 853.561 311.355 870.723 294.193 870.723 376.947 953.476 359.785 953.476" style="fill: #8c28ff"/>
        <polygon points="572.179 870.69 555.018 870.69 576.546 849.162 559.384 849.162 576.546 832 610.869 832 610.869 866.324 593.708 883.485 593.708 866.324 572.179 887.852 572.179 870.69" style="fill: #8c28ff"/>
        <polygon points="329.594 757.85 329.594 740.689 397.805 808.899 397.805 791.737 414.966 808.899 414.966 843.223 380.643 843.223 363.481 826.061 380.643 826.061 312.432 757.85 329.594 757.85" style="fill: #8c28ff"/>
        <polygon points="413.308 728.082 401.173 715.947 470.551 715.947 458.416 703.812 482.686 703.812 506.957 728.082 482.687 752.353 458.416 752.353 470.551 740.218 401.173 740.217 413.308 728.082" style="fill: #8c28ff"/>
        <polygon points="406.447 1010.098 394.312 997.963 430.69 997.963 418.554 985.828 442.825 985.828 467.095 1010.098 442.825 1034.368 418.554 1034.368 430.69 1022.233 394.312 1022.233 406.447 1010.098" style="fill: #8c28ff"/>
        <polygon points="390.776 868.864 402.911 856.729 402.911 901.063 415.046 888.928 415.046 913.198 390.776 937.469 366.505 913.198 366.505 888.928 378.64 901.063 378.64 856.729 390.776 868.864" style="fill: #8c28ff"/>
        <polygon points="348.583 825.423 354.651 819.356 306.498 819.356 306.498 813.288 294.363 825.423 306.498 837.558 306.498 831.491 354.651 831.491 348.583 825.423" style="fill: #0f9bff"/>
        <polygon points="540.391 831.922 540.391 823.341 506.3 857.433 502.009 853.142 502.009 870.304 519.171 870.304 514.88 866.014 548.972 831.922 540.391 831.922" style="fill: #0f9bff"/>
        <polygon points="337.08 853.962 331.012 847.894 331.012 884.454 324.945 884.454 337.08 896.589 349.215 884.454 343.147 884.454 343.147 847.894 337.08 853.962" style="fill: #ff4164"/>
        <polygon points="428.649 794.228 428.649 802.809 454.501 776.958 458.791 781.248 458.791 764.087 441.629 764.087 445.92 768.377 420.069 794.228 428.649 794.228" style="fill: #ff4164"/>
        <polygon points="453.197 949.676 444.616 949.676 477.468 982.528 473.178 986.818 490.34 986.818 490.34 969.657 486.049 973.947 453.197 941.095 453.197 949.676" style="fill: #0f9bff"/>
        <polygon points="478.32 873.161 484.388 879.229 484.388 844.145 490.455 844.145 478.32 832.01 466.185 844.145 472.253 844.145 472.253 879.229 478.32 873.161" style="fill: #ff4164"/>
      </g>
      <rect x="274.46876" y="699.05004" width="300.22389" height="300.22389" transform="translate(124.3564 1749.83408) rotate(-135)" style="fill: none"/>
    </g>
    <g>
      <g>
        <polygon points="142.271 796.673 150.852 796.673 68.443 879.082 72.734 883.372 55.572 883.372 55.572 866.211 59.862 870.501 142.271 788.093 142.271 796.673" style="fill: #ff4164"/>
        <polygon points="36.809 960.848 36.809 952.268 59.996 975.454 64.287 971.164 64.287 988.326 47.125 988.326 51.415 984.035 28.229 960.848 36.809 960.848" style="fill: #ff4164"/>
        <polygon points="-23.773 863.893 -29.841 857.826 28.22 857.826 28.22 851.758 40.355 863.893 28.22 876.029 28.22 869.961 -29.841 869.961 -23.773 863.893" style="fill: #0f9bff"/>
        <polygon points="4.29 658.583 12.871 658.583 -58.226 729.68 -53.935 733.97 -71.097 733.97 -71.097 716.808 -66.806 721.099 4.29 650.002 4.29 658.583" style="fill: #ff4164"/>
        <polygon points="90.537 944.905 107.698 944.905 76.766 913.972 93.927 913.972 76.766 896.811 42.442 896.811 42.442 931.134 59.604 948.296 59.604 931.134 90.537 962.067 90.537 944.905" style="fill: #8c28ff"/>
        <polygon points="104.314 784.366 121.476 784.366 38.722 701.613 55.884 701.613 38.722 684.451 4.399 684.451 4.399 718.775 21.561 735.936 21.561 718.775 104.314 801.528 104.314 784.366" style="fill: #8c28ff"/>
        <polygon points="21.528 996.761 21.528 979.599 0 1001.127 0 983.965 -17.162 1001.127 -17.162 1035.451 17.162 1035.451 34.323 1018.289 17.162 1018.289 38.69 996.761 21.528 996.761" style="fill: #8c28ff"/>
        <polygon points="160.936 831.028 148.801 818.893 148.801 855.271 136.666 843.136 136.666 867.406 160.936 891.676 185.206 867.406 185.206 843.136 173.071 855.271 173.071 818.893 160.936 831.028" style="fill: #8c28ff"/>
        <polygon points="19.702 815.357 7.567 827.492 51.901 827.492 39.766 839.627 64.036 839.627 88.307 815.357 64.036 791.087 39.766 791.087 51.901 803.222 7.567 803.222 19.702 815.357" style="fill: #8c28ff"/>
        <polygon points="-17.24 964.973 -25.821 964.973 8.271 930.881 3.98 926.59 21.142 926.59 21.142 943.752 16.852 939.462 -17.24 973.553 -17.24 964.973" style="fill: #0f9bff"/>
        <polygon points="4.8 761.661 -1.268 755.593 35.292 755.593 35.292 749.526 47.427 761.661 35.292 773.796 35.292 767.729 -1.268 767.729 4.8 761.661" style="fill: #ff4164"/>
        <polygon points="100.514 877.778 100.514 869.197 133.366 902.05 137.656 897.759 137.656 914.921 120.495 914.921 124.785 910.63 91.933 877.778 100.514 877.778" style="fill: #0f9bff"/>
        <polygon points="23.999 902.901 30.067 908.969 -5.017 908.969 -5.017 915.036 -17.152 902.901 -5.017 890.766 -5.017 896.834 30.067 896.834 23.999 902.901" style="fill: #ff4164"/>
      </g>
      <rect x="-150.11195" y="699.05004" width="300.22389" height="300.22389" transform="translate(-600.4482 1449.61018) rotate(-135)" style="fill: none"/>
    </g>
    <g>
      <g>
        <polygon points="203.172 368.431 209.239 374.498 177.115 374.498 177.115 380.566 164.98 368.431 177.115 356.296 177.115 362.363 209.239 362.363 203.172 368.431" style="fill: #ff4164"/>
        <polygon points="159.802 70.02 159.802 61.439 242.21 143.848 246.501 139.557 246.501 156.719 229.339 156.719 233.63 152.429 151.221 70.02 159.802 70.02" style="fill: #ff4164"/>
        <polygon points="323.977 175.481 315.396 175.481 338.583 152.295 334.292 148.004 351.454 148.004 351.454 165.166 347.164 160.876 323.977 184.062 323.977 175.481" style="fill: #ff4164"/>
        <polygon points="227.022 236.064 220.954 242.132 220.954 184.071 214.887 184.071 227.022 171.936 239.157 184.071 233.089 184.071 233.089 242.132 227.022 236.064" style="fill: #0f9bff"/>
        <polygon points="21.711 208.001 21.711 199.42 92.808 270.517 97.098 266.226 97.098 283.388 79.937 283.388 84.227 279.097 13.13 208.001 21.711 208.001" style="fill: #ff4164"/>
        <polygon points="360.288 250.591 368.869 250.591 347.274 272.185 351.564 276.476 334.403 276.476 334.403 259.314 338.693 263.604 360.288 242.01 360.288 250.591" style="fill: #ff4164"/>
        <polygon points="235.826 375.044 244.407 375.044 216.581 402.87 220.871 407.161 203.71 407.161 203.71 389.999 208 394.289 235.826 366.463 235.826 375.044" style="fill: #0f9bff"/>
        <polygon points="194.236 291.634 202.817 291.634 154.081 340.37 158.372 344.661 141.21 344.661 141.21 327.499 145.5 331.79 194.236 283.054 194.236 291.634" style="fill: #0f9bff"/>
        <polygon points="314.022 296.848 331.184 296.848 294.253 259.917 311.415 259.917 294.254 242.755 259.93 242.755 259.93 277.079 277.092 294.24 277.092 277.079 314.022 314.009 314.022 296.848" style="fill: #8c28ff"/>
        <polygon points="308.034 121.754 308.034 104.592 277.101 135.525 277.101 118.364 259.939 135.525 259.939 169.849 294.262 169.849 311.424 152.687 294.262 152.687 325.195 121.754 308.034 121.754" style="fill: #8c28ff"/>
        <polygon points="147.495 107.977 147.495 90.815 64.741 173.569 64.741 156.407 47.58 173.568 47.58 207.892 81.903 207.892 99.065 190.73 81.903 190.73 164.656 107.977 147.495 107.977" style="fill: #8c28ff"/>
        <polygon points="359.889 190.763 342.727 190.763 364.256 212.291 347.094 212.291 364.255 229.453 398.579 229.453 398.579 195.129 381.417 177.968 381.417 195.129 359.889 173.601 359.889 190.763" style="fill: #8c28ff"/>
        <polygon points="117.304 303.603 117.304 320.764 185.514 252.554 185.514 269.715 202.676 252.554 202.676 218.23 168.353 218.23 151.191 235.392 168.353 235.392 100.142 303.603 117.304 303.603" style="fill: #8c28ff"/>
        <polygon points="201.018 333.371 188.883 345.506 258.261 345.506 246.126 357.641 270.396 357.641 294.667 333.371 270.396 309.1 246.126 309.1 258.261 321.235 188.883 321.235 201.018 333.371" style="fill: #8c28ff"/>
        <polygon points="194.156 51.355 182.021 63.49 218.399 63.49 206.264 75.625 230.534 75.625 254.805 51.355 230.534 27.085 206.264 27.085 218.399 39.22 182.021 39.22 194.156 51.355" style="fill: #8c28ff"/>
        <polygon points="178.485 192.589 190.62 204.724 190.62 160.39 202.755 172.525 202.755 148.255 178.485 123.984 154.215 148.255 154.215 172.525 166.35 160.39 166.35 204.724 178.485 192.589" style="fill: #8c28ff"/>
        <polygon points="136.293 236.03 142.36 242.097 94.207 242.097 94.207 248.165 82.072 236.03 94.207 223.895 94.207 229.962 142.36 229.962 136.293 236.03" style="fill: #0f9bff"/>
        <polygon points="328.101 229.531 328.101 238.112 294.009 204.02 289.719 208.311 289.719 191.149 306.881 191.149 302.59 195.439 336.682 229.531 328.101 229.531" style="fill: #0f9bff"/>
        <polygon points="124.789 207.491 118.722 213.559 118.722 176.999 112.654 176.999 124.789 164.864 136.925 176.999 130.857 176.999 130.857 213.559 124.789 207.491" style="fill: #ff4164"/>
        <polygon points="216.359 267.225 216.359 258.644 242.21 284.495 246.501 280.205 246.501 297.366 229.339 297.366 233.63 293.076 207.778 267.225 216.359 267.225" style="fill: #ff4164"/>
        <polygon points="240.907 111.777 232.326 111.777 265.178 78.925 260.888 74.635 278.049 74.635 278.049 91.796 273.759 87.506 240.907 120.358 240.907 111.777" style="fill: #0f9bff"/>
        <polygon points="266.03 188.292 272.097 182.224 272.097 217.308 278.165 217.308 266.03 229.443 253.895 217.308 259.962 217.308 259.962 182.224 266.03 188.292" style="fill: #ff4164"/>
      </g>
      <rect x="62.1784" y="62.17898" width="300.22389" height="300.22389" transform="translate(512.51465 212.29134) rotate(135)" style="fill: none"/>
    </g>
    <g>
      <g>
        <polygon points="645.99 480.732 639.922 474.664 672.046 474.664 672.046 468.597 684.181 480.732 672.046 492.867 672.046 486.799 639.922 486.799 645.99 480.732" style="fill: #ff4164"/>
        <polygon points="689.36 779.143 689.36 787.723 606.951 705.315 602.661 709.605 602.661 692.444 619.822 692.444 615.532 696.734 697.94 779.143 689.36 779.143" style="fill: #ff4164"/>
        <polygon points="525.185 673.681 533.765 673.681 510.579 696.868 514.869 701.158 497.707 701.158 497.707 683.997 501.998 688.287 525.185 665.1 525.185 673.681" style="fill: #ff4164"/>
        <polygon points="622.14 613.098 628.207 607.031 628.207 665.092 634.275 665.092 622.14 677.227 610.005 665.092 616.072 665.092 616.072 607.031 622.14 613.098" style="fill: #0f9bff"/>
        <polygon points="827.45 641.162 827.45 649.743 756.353 578.646 752.063 582.936 752.063 565.775 769.225 565.775 764.934 570.065 836.031 641.162 827.45 641.162" style="fill: #ff4164"/>
        <polygon points="488.873 598.572 480.293 598.572 501.887 576.977 497.597 572.687 514.759 572.687 514.759 589.849 510.468 585.558 488.873 607.153 488.873 598.572" style="fill: #ff4164"/>
        <polygon points="613.335 474.119 604.754 474.119 632.581 446.292 628.29 442.002 645.452 442.002 645.452 459.164 641.161 454.873 613.335 482.7 613.335 474.119" style="fill: #0f9bff"/>
        <polygon points="654.925 557.528 646.344 557.528 695.08 508.792 690.79 504.502 707.952 504.502 707.952 521.663 703.661 517.373 654.925 566.109 654.925 557.528" style="fill: #0f9bff"/>
        <polygon points="535.139 552.315 517.977 552.315 554.908 589.246 537.746 589.245 554.908 606.407 589.231 606.407 589.231 572.084 572.07 554.922 572.07 572.084 535.139 535.153 535.139 552.315" style="fill: #8c28ff"/>
        <polygon points="541.128 727.408 541.128 744.57 572.061 713.637 572.061 730.799 589.222 713.637 589.222 679.314 554.899 679.314 537.737 696.476 554.899 696.476 523.966 727.408 541.128 727.408" style="fill: #8c28ff"/>
        <polygon points="701.667 741.186 701.667 758.347 784.42 675.594 784.42 692.756 801.582 675.594 801.582 641.271 767.258 641.271 750.097 658.432 767.258 658.432 684.505 741.186 701.667 741.186" style="fill: #8c28ff"/>
        <polygon points="489.272 658.4 506.434 658.4 484.906 636.871 502.068 636.871 484.906 619.71 450.582 619.71 450.582 654.033 467.744 671.195 467.744 654.033 489.272 675.562 489.272 658.4" style="fill: #8c28ff"/>
        <polygon points="731.858 545.56 731.858 528.398 663.647 596.609 663.647 579.447 646.485 596.609 646.485 630.932 680.809 630.932 697.97 613.771 680.809 613.771 749.019 545.56 731.858 545.56" style="fill: #8c28ff"/>
        <polygon points="648.144 515.792 660.279 503.657 590.9 503.657 603.036 491.522 578.765 491.522 554.495 515.792 578.765 540.062 603.035 540.062 590.9 527.927 660.279 527.927 648.144 515.792" style="fill: #8c28ff"/>
        <polygon points="655.005 797.808 667.14 785.673 630.762 785.673 642.897 773.537 618.627 773.537 594.357 797.808 618.627 822.078 642.897 822.078 630.762 809.943 667.14 809.943 655.005 797.808" style="fill: #8c28ff"/>
        <polygon points="670.676 656.574 658.541 644.439 658.541 688.773 646.406 676.638 646.406 700.908 670.676 725.178 694.946 700.908 694.946 676.638 682.811 688.773 682.811 644.439 670.676 656.574" style="fill: #8c28ff"/>
        <polygon points="712.869 613.133 706.801 607.065 754.954 607.065 754.954 600.998 767.089 613.133 754.954 625.268 754.954 619.2 706.801 619.2 712.869 613.133" style="fill: #0f9bff"/>
        <polygon points="521.06 619.632 521.06 611.051 555.152 645.142 559.443 640.852 559.443 658.014 542.281 658.014 546.571 653.723 512.48 619.632 521.06 619.632" style="fill: #0f9bff"/>
        <polygon points="724.372 641.671 730.44 635.604 730.44 672.163 736.507 672.163 724.372 684.298 712.237 672.163 718.304 672.163 718.304 635.604 724.372 641.671" style="fill: #ff4164"/>
        <polygon points="632.802 581.938 632.802 590.519 606.951 564.667 602.661 568.958 602.661 551.796 619.822 551.796 615.532 556.087 641.383 581.938 632.802 581.938" style="fill: #ff4164"/>
        <polygon points="608.255 737.385 616.836 737.385 583.983 770.237 588.274 774.528 571.112 774.528 571.112 757.366 575.403 761.657 608.255 728.804 608.255 737.385" style="fill: #0f9bff"/>
        <polygon points="583.132 660.871 577.064 666.938 577.064 631.855 570.997 631.855 583.132 619.72 595.267 631.855 589.199 631.855 589.199 666.938 583.132 660.871" style="fill: #ff4164"/>
      </g>
      <rect x="486.75911" y="486.75969" width="300.22389" height="300.22389" transform="translate(-263.80104 636.87122) rotate(-45)" style="fill: none"/>
    </g>
    <g>
      <g>
        <polygon points="203.172 1217.592 209.239 1223.66 177.115 1223.66 177.115 1229.727 164.98 1217.592 177.115 1205.457 177.115 1211.525 209.239 1211.525 203.172 1217.592" style="fill: #ff4164"/>
        <polygon points="159.802 919.181 159.802 910.601 242.21 993.009 246.501 988.719 246.501 1005.88 229.339 1005.88 233.63 1001.59 151.221 919.181 159.802 919.181" style="fill: #ff4164"/>
        <polygon points="323.977 1024.643 315.396 1024.643 338.583 1001.456 334.292 997.166 351.454 997.166 351.454 1014.327 347.164 1010.037 323.977 1033.224 323.977 1024.643" style="fill: #ff4164"/>
        <polygon points="227.022 1085.226 220.954 1091.293 220.954 1033.232 214.887 1033.232 227.022 1021.097 239.157 1033.232 233.089 1033.232 233.089 1091.293 227.022 1085.226" style="fill: #0f9bff"/>
        <polygon points="21.711 1057.162 21.711 1048.581 92.808 1119.678 97.098 1115.388 97.098 1132.549 79.937 1132.549 84.227 1128.259 13.13 1057.162 21.711 1057.162" style="fill: #ff4164"/>
        <polygon points="360.288 1099.752 368.869 1099.752 347.274 1121.347 351.564 1125.637 334.403 1125.637 334.403 1108.475 338.693 1112.766 360.288 1091.171 360.288 1099.752" style="fill: #ff4164"/>
        <polygon points="235.826 1224.205 244.407 1224.205 216.581 1252.032 220.871 1256.322 203.71 1256.322 203.71 1239.16 208 1243.451 235.826 1215.624 235.826 1224.205" style="fill: #0f9bff"/>
        <polygon points="194.236 1140.796 202.817 1140.796 154.081 1189.532 158.372 1193.822 141.21 1193.822 141.21 1176.661 145.5 1180.951 194.236 1132.215 194.236 1140.796" style="fill: #0f9bff"/>
        <polygon points="314.022 1146.009 331.184 1146.009 294.253 1109.078 311.415 1109.078 294.254 1091.917 259.93 1091.917 259.93 1126.24 277.092 1143.402 277.092 1126.24 314.022 1163.171 314.022 1146.009" style="fill: #8c28ff"/>
        <polygon points="308.034 970.916 308.034 953.754 277.101 984.687 277.101 967.525 259.939 984.687 259.939 1019.01 294.262 1019.01 311.424 1001.848 294.262 1001.848 325.195 970.916 308.034 970.916" style="fill: #8c28ff"/>
        <polygon points="147.495 957.138 147.495 939.977 64.741 1022.73 64.741 1005.568 47.58 1022.73 47.58 1057.053 81.903 1057.053 99.065 1039.892 81.903 1039.892 164.656 957.138 147.495 957.138" style="fill: #8c28ff"/>
        <polygon points="359.889 1039.924 342.727 1039.924 364.256 1061.452 347.094 1061.452 364.255 1078.614 398.579 1078.614 398.579 1044.291 381.417 1027.129 381.417 1044.291 359.889 1022.762 359.889 1039.924" style="fill: #8c28ff"/>
        <polygon points="117.304 1152.764 117.304 1169.926 185.514 1101.715 185.514 1118.877 202.676 1101.715 202.676 1067.392 168.353 1067.392 151.191 1084.553 168.353 1084.553 100.142 1152.764 117.304 1152.764" style="fill: #8c28ff"/>
        <polygon points="201.018 1182.532 188.883 1194.667 258.261 1194.667 246.126 1206.802 270.396 1206.802 294.667 1182.532 270.396 1158.262 246.126 1158.262 258.261 1170.397 188.883 1170.397 201.018 1182.532" style="fill: #8c28ff"/>
        <polygon points="194.156 900.516 182.021 912.651 218.399 912.651 206.264 924.787 230.534 924.787 254.805 900.516 230.534 876.246 206.264 876.246 218.399 888.381 182.021 888.381 194.156 900.516" style="fill: #8c28ff"/>
        <polygon points="178.485 1041.75 190.62 1053.885 190.62 1009.551 202.755 1021.686 202.755 997.416 178.485 973.146 154.215 997.416 154.215 1021.686 166.35 1009.551 166.35 1053.885 178.485 1041.75" style="fill: #8c28ff"/>
        <polygon points="136.293 1085.191 142.36 1091.259 94.207 1091.259 94.207 1097.326 82.072 1085.191 94.207 1073.056 94.207 1079.124 142.36 1079.124 136.293 1085.191" style="fill: #0f9bff"/>
        <polygon points="328.101 1078.692 328.101 1087.273 294.009 1053.182 289.719 1057.472 289.719 1040.31 306.881 1040.31 302.59 1044.601 336.682 1078.692 328.101 1078.692" style="fill: #0f9bff"/>
        <polygon points="124.789 1056.653 118.722 1062.72 118.722 1026.161 112.654 1026.161 124.789 1014.026 136.925 1026.161 130.857 1026.161 130.857 1062.72 124.789 1056.653" style="fill: #ff4164"/>
        <polygon points="216.359 1116.386 216.359 1107.805 242.21 1133.657 246.501 1129.366 246.501 1146.528 229.339 1146.528 233.63 1142.237 207.778 1116.386 216.359 1116.386" style="fill: #ff4164"/>
        <polygon points="240.907 960.939 232.326 960.939 265.178 928.086 260.888 923.796 278.049 923.796 278.049 940.958 273.759 936.667 240.907 969.52 240.907 960.939" style="fill: #0f9bff"/>
        <polygon points="266.03 1037.453 272.097 1031.385 272.097 1066.469 278.165 1066.469 266.03 1078.604 253.895 1066.469 259.962 1066.469 259.962 1031.385 266.03 1037.453" style="fill: #ff4164"/>
      </g>
      <rect x="62.1784" y="911.34039" width="300.22389" height="300.22389" transform="translate(1112.96244 1661.90053) rotate(135)" style="fill: none"/>
    </g>
  </g>
  <g>
    <g>
      <g>
        <polygon points="1326.231 282.31 1326.231 273.729 1243.822 356.138 1239.532 351.848 1239.532 369.009 1256.693 369.009 1252.403 364.719 1334.811 282.31 1326.231 282.31" style="fill: #ff4164"/>
        <polygon points="1162.056 387.772 1170.636 387.772 1147.45 364.585 1151.74 360.295 1134.578 360.295 1134.578 377.456 1138.869 373.166 1162.056 396.353 1162.056 387.772" style="fill: #ff4164"/>
        <polygon points="1259.011 448.355 1265.078 454.422 1265.078 396.361 1271.146 396.361 1259.011 384.226 1246.876 396.361 1252.943 396.361 1252.943 454.422 1259.011 448.355" style="fill: #0f9bff"/>
        <polygon points="1125.745 462.881 1117.164 462.881 1138.758 484.476 1134.468 488.766 1151.63 488.766 1151.63 471.604 1147.339 475.895 1125.745 454.3 1125.745 462.881" style="fill: #ff4164"/>
        <polygon points="1250.206 587.334 1241.625 587.334 1269.452 615.16 1265.161 619.451 1282.323 619.451 1282.323 602.289 1278.033 606.58 1250.206 578.753 1250.206 587.334" style="fill: #0f9bff"/>
        <polygon points="1172.01 509.138 1154.848 509.138 1191.779 472.207 1174.617 472.207 1191.779 455.046 1226.102 455.046 1226.102 489.369 1208.941 506.531 1208.941 489.369 1172.01 526.3 1172.01 509.138" style="fill: #8c28ff"/>
        <polygon points="1177.999 334.045 1177.999 316.883 1208.932 347.816 1208.932 330.654 1226.093 347.816 1226.093 382.139 1191.77 382.139 1174.608 364.977 1191.77 364.977 1160.837 334.045 1177.999 334.045" style="fill: #8c28ff"/>
        <polygon points="1126.144 403.053 1143.305 403.053 1121.777 424.581 1138.939 424.581 1121.777 441.743 1087.453 441.743 1087.453 407.42 1104.615 390.258 1104.615 407.42 1126.144 385.891 1126.144 403.053" style="fill: #8c28ff"/>
        <polygon points="1285.015 545.661 1297.15 557.796 1227.771 557.796 1239.907 569.931 1215.636 569.931 1191.366 545.661 1215.636 521.391 1239.906 521.391 1227.771 533.526 1297.15 533.526 1285.015 545.661" style="fill: #8c28ff"/>
        <polygon points="1291.876 263.645 1304.011 275.78 1267.633 275.78 1279.768 287.915 1255.498 287.915 1231.228 263.645 1255.498 239.375 1279.768 239.375 1267.633 251.51 1304.011 251.51 1291.876 263.645" style="fill: #8c28ff"/>
        <polygon points="1157.931 441.821 1157.931 450.402 1192.023 416.31 1196.314 420.601 1196.314 403.439 1179.152 403.439 1183.442 407.73 1149.351 441.821 1157.931 441.821" style="fill: #0f9bff"/>
        <polygon points="1269.673 479.515 1269.673 470.934 1243.822 496.785 1239.532 492.495 1239.532 509.657 1256.693 509.657 1252.403 505.366 1278.254 479.515 1269.673 479.515" style="fill: #ff4164"/>
        <polygon points="1245.126 324.068 1253.707 324.068 1220.855 291.215 1225.145 286.925 1207.983 286.925 1207.983 304.087 1212.274 299.796 1245.126 332.649 1245.126 324.068" style="fill: #0f9bff"/>
        <polygon points="1220.003 400.582 1213.935 394.514 1213.935 429.598 1207.868 429.598 1220.003 441.733 1232.138 429.598 1226.07 429.598 1226.07 394.514 1220.003 400.582" style="fill: #ff4164"/>
      </g>
      <rect x="1123.63016" y="274.46933" width="300.22389" height="300.22389" transform="translate(673.29473 -776.31471) rotate(45)" style="fill: none"/>
    </g>
    <rect x="1335.92051" y="486.75969" width="300.22389" height="300.22389" transform="translate(-15.08742 1237.31901) rotate(-45)" style="fill: none"/>
    <g>
      <g>
        <polygon points="1117.602 840.043 1111.535 846.111 1111.535 813.987 1105.467 813.987 1117.602 801.852 1129.737 813.987 1123.67 813.987 1123.67 846.111 1117.602 840.043" style="fill: #ff4164"/>
        <polygon points="1249.969 863.893 1243.901 857.826 1301.962 857.826 1301.962 851.758 1314.097 863.893 1301.962 876.029 1301.962 869.961 1243.901 869.961 1249.969 863.893" style="fill: #0f9bff"/>
        <polygon points="1278.032 658.583 1286.613 658.583 1215.516 729.68 1219.807 733.97 1202.645 733.97 1202.645 716.808 1206.936 721.099 1278.032 650.002 1278.032 658.583" style="fill: #ff4164"/>
        <polygon points="1235.442 997.16 1235.442 1005.74 1213.848 984.146 1209.557 988.436 1209.557 971.274 1226.719 971.274 1222.429 975.565 1244.023 997.16 1235.442 997.16" style="fill: #ff4164"/>
        <polygon points="1110.989 872.698 1110.989 881.279 1083.163 853.452 1078.873 857.743 1078.873 840.581 1096.034 840.581 1091.744 844.872 1119.57 872.698 1110.989 872.698" style="fill: #0f9bff"/>
        <polygon points="1194.399 831.108 1194.399 839.689 1145.663 790.953 1141.372 795.243 1141.372 778.082 1158.534 778.082 1154.243 782.372 1202.979 831.108 1194.399 831.108" style="fill: #0f9bff"/>
        <polygon points="1189.185 950.894 1189.185 968.056 1226.116 931.125 1226.116 948.287 1243.278 931.125 1243.278 896.802 1208.954 896.802 1191.793 913.963 1208.954 913.963 1172.024 950.894 1189.185 950.894" style="fill: #8c28ff"/>
        <polygon points="1295.27 996.761 1295.27 979.599 1273.742 1001.127 1273.742 983.965 1256.58 1001.127 1256.58 1035.451 1290.904 1035.451 1308.065 1018.289 1290.904 1018.289 1312.432 996.761 1295.27 996.761" style="fill: #8c28ff"/>
        <polygon points="1182.43 754.175 1165.269 754.175 1233.479 822.386 1216.318 822.386 1233.479 839.548 1267.803 839.548 1267.803 805.224 1250.641 788.063 1250.641 805.224 1182.43 737.014 1182.43 754.175" style="fill: #8c28ff"/>
        <polygon points="1152.662 837.889 1140.527 825.754 1140.527 895.133 1128.392 882.998 1128.392 907.268 1152.662 931.538 1176.933 907.268 1176.933 882.998 1164.798 895.133 1164.798 825.754 1152.662 837.889" style="fill: #8c28ff"/>
        <polygon points="1250.003 773.164 1243.936 779.232 1243.936 731.079 1237.868 731.079 1250.003 718.944 1262.138 731.079 1256.071 731.079 1256.071 779.232 1250.003 773.164" style="fill: #0f9bff"/>
        <polygon points="1256.502 964.973 1247.921 964.973 1282.013 930.881 1277.723 926.59 1294.884 926.59 1294.884 943.752 1290.594 939.462 1256.502 973.553 1256.502 964.973" style="fill: #0f9bff"/>
        <polygon points="1278.542 761.661 1272.474 755.593 1309.034 755.593 1309.034 749.526 1321.169 761.661 1309.034 773.796 1309.034 767.729 1272.474 767.729 1278.542 761.661" style="fill: #ff4164"/>
        <polygon points="1218.808 853.231 1227.389 853.231 1201.538 879.082 1205.828 883.372 1188.667 883.372 1188.667 866.211 1192.957 870.501 1218.808 844.65 1218.808 853.231" style="fill: #ff4164"/>
        <polygon points="1297.741 902.901 1303.809 908.969 1268.725 908.969 1268.725 915.036 1256.59 902.901 1268.725 890.766 1268.725 896.834 1303.809 896.834 1297.741 902.901" style="fill: #ff4164"/>
      </g>
      <rect x="1123.63016" y="699.05004" width="300.22389" height="300.22389" transform="translate(1573.9656 2350.28187) rotate(-135)" style="fill: none"/>
    </g>
    <rect x="1335.92051" y="62.17898" width="300.22389" height="300.22389" transform="translate(2686.92845 -688.38035) rotate(135)" style="fill: none"/>
    <rect x="1335.92051" y="911.34039" width="300.22389" height="300.22389" transform="translate(3287.37624 761.22885) rotate(135)" style="fill: none"/>
    <g>
      <g>
        <polygon points="1070.57 480.732 1064.503 474.664 1096.627 474.664 1096.627 468.597 1108.762 480.732 1096.627 492.867 1096.627 486.799 1064.503 486.799 1070.57 480.732" style="fill: #ff4164"/>
        <polygon points="1113.94 779.143 1113.94 787.723 1031.532 705.315 1027.241 709.605 1027.241 692.444 1044.403 692.444 1040.113 696.734 1122.521 779.143 1113.94 779.143" style="fill: #ff4164"/>
        <polygon points="949.765 673.681 958.346 673.681 935.159 696.868 939.45 701.158 922.288 701.158 922.288 683.997 926.579 688.287 949.765 665.1 949.765 673.681" style="fill: #ff4164"/>
        <polygon points="1046.72 613.098 1052.788 607.031 1052.788 665.092 1058.855 665.092 1046.72 677.227 1034.585 665.092 1040.653 665.092 1040.653 607.031 1046.72 613.098" style="fill: #0f9bff"/>
        <polygon points="1252.031 641.162 1252.031 649.743 1180.934 578.646 1176.644 582.936 1176.644 565.775 1193.805 565.775 1189.515 570.065 1260.612 641.162 1252.031 641.162" style="fill: #ff4164"/>
        <polygon points="913.454 598.572 904.873 598.572 926.468 576.977 922.178 572.687 939.339 572.687 939.339 589.849 935.049 585.558 913.454 607.153 913.454 598.572" style="fill: #ff4164"/>
        <polygon points="1037.916 474.119 1029.335 474.119 1057.161 446.292 1052.871 442.002 1070.033 442.002 1070.033 459.164 1065.742 454.873 1037.916 482.7 1037.916 474.119" style="fill: #0f9bff"/>
        <polygon points="1079.506 557.528 1070.925 557.528 1119.661 508.792 1115.371 504.502 1132.532 504.502 1132.532 521.663 1128.242 517.373 1079.506 566.109 1079.506 557.528" style="fill: #0f9bff"/>
        <polygon points="959.72 552.315 942.558 552.315 979.489 589.246 962.327 589.245 979.489 606.407 1013.812 606.407 1013.812 572.084 996.65 554.922 996.65 572.084 959.72 535.153 959.72 552.315" style="fill: #8c28ff"/>
        <polygon points="965.708 727.408 965.708 744.57 996.641 713.637 996.641 730.799 1013.803 713.637 1013.803 679.314 979.48 679.314 962.318 696.476 979.48 696.476 948.547 727.408 965.708 727.408" style="fill: #8c28ff"/>
        <polygon points="1126.247 741.186 1126.247 758.347 1209.001 675.594 1209.001 692.756 1226.162 675.594 1226.162 641.271 1191.839 641.271 1174.677 658.432 1191.839 658.432 1109.086 741.186 1126.247 741.186" style="fill: #8c28ff"/>
        <polygon points="913.853 658.4 931.015 658.4 909.487 636.871 926.648 636.871 909.487 619.71 875.163 619.71 875.163 654.033 892.325 671.195 892.325 654.033 913.853 675.562 913.853 658.4" style="fill: #8c28ff"/>
        <polygon points="1156.438 545.56 1156.438 528.398 1088.228 596.609 1088.228 579.447 1071.066 596.609 1071.066 630.932 1105.389 630.932 1122.551 613.771 1105.389 613.771 1173.6 545.56 1156.438 545.56" style="fill: #8c28ff"/>
        <polygon points="1072.724 515.792 1084.86 503.657 1015.481 503.657 1027.616 491.522 1003.346 491.522 979.076 515.792 1003.346 540.062 1027.616 540.062 1015.481 527.927 1084.859 527.927 1072.724 515.792" style="fill: #8c28ff"/>
        <polygon points="1079.586 797.808 1091.721 785.673 1055.343 785.673 1067.478 773.537 1043.208 773.537 1018.938 797.808 1043.208 822.078 1067.478 822.078 1055.343 809.943 1091.721 809.943 1079.586 797.808" style="fill: #8c28ff"/>
        <polygon points="1095.257 656.574 1083.122 644.439 1083.122 688.773 1070.987 676.638 1070.987 700.908 1095.257 725.178 1119.527 700.908 1119.527 676.638 1107.392 688.773 1107.392 644.439 1095.257 656.574" style="fill: #8c28ff"/>
        <polygon points="1137.449 613.133 1131.382 607.065 1179.535 607.065 1179.535 600.998 1191.67 613.133 1179.535 625.268 1179.535 619.2 1131.382 619.2 1137.449 613.133" style="fill: #0f9bff"/>
        <polygon points="945.641 619.632 945.641 611.051 979.733 645.142 984.023 640.852 984.023 658.014 966.862 658.014 971.152 653.723 937.06 619.632 945.641 619.632" style="fill: #0f9bff"/>
        <polygon points="1148.953 641.671 1155.02 635.604 1155.02 672.163 1161.088 672.163 1148.953 684.298 1136.818 672.163 1142.885 672.163 1142.885 635.604 1148.953 641.671" style="fill: #ff4164"/>
        <polygon points="1057.383 581.938 1057.383 590.519 1031.532 564.667 1027.241 568.958 1027.241 551.796 1044.403 551.796 1040.113 556.087 1065.964 581.938 1057.383 581.938" style="fill: #ff4164"/>
        <polygon points="1032.836 737.385 1041.416 737.385 1008.564 770.237 1012.855 774.528 995.693 774.528 995.693 757.366 999.983 761.657 1032.836 728.804 1032.836 737.385" style="fill: #0f9bff"/>
        <polygon points="1007.712 660.871 1001.645 666.938 1001.645 631.855 995.577 631.855 1007.712 619.72 1019.848 631.855 1013.78 631.855 1013.78 666.938 1007.712 660.871" style="fill: #ff4164"/>
      </g>
      <rect x="911.33981" y="486.75969" width="300.22389" height="300.22389" transform="translate(-139.44423 937.09512) rotate(-45)" style="fill: none"/>
    </g>
  </g>
  <g>
    <rect x="486.75911" y="-362.40172" width="300.22389" height="300.22389" transform="translate(36.42367 -512.51408) rotate(45)" style="fill: none"/>
    <rect x="911.33981" y="-362.40172" width="300.22389" height="300.22389" transform="translate(160.78048 -812.73797) rotate(45)" style="fill: none"/>
    <g>
      <g>
        <polygon points="812.352 111.687 812.352 103.106 789.165 126.293 784.875 122.003 784.875 139.164 802.036 139.164 797.746 134.874 820.933 111.687 812.352 111.687" style="fill: #0f9bff"/>
        <polygon points="887.461 147.998 887.461 156.579 909.056 134.984 913.346 139.275 913.346 122.113 896.185 122.113 900.475 126.403 878.88 147.998 887.461 147.998" style="fill: #0f9bff"/>
        <polygon points="1011.914 23.536 1011.914 32.117 1039.741 4.291 1044.031 8.581 1044.031 -8.58 1026.869 -8.58 1031.16 -4.29 1003.334 23.536 1011.914 23.536" style="fill: #0f9bff"/>
        <polygon points="933.718 101.733 933.718 118.894 896.788 81.964 896.788 99.125 879.626 81.964 879.626 47.64 913.949 47.64 931.111 64.802 913.949 64.802 950.88 101.733 933.718 101.733" style="fill: #8c28ff"/>
        <polygon points="758.625 95.744 741.463 95.744 772.396 64.811 755.234 64.811 772.396 47.649 806.719 47.649 806.719 81.973 789.557 99.134 789.558 81.973 758.625 112.906 758.625 95.744" style="fill: #8c28ff"/>
        <polygon points="827.633 147.599 827.633 130.437 849.162 151.966 849.162 134.804 866.323 151.966 866.323 186.289 832 186.289 814.838 169.128 832 169.128 810.471 147.599 827.633 147.599" style="fill: #8c28ff"/>
        <polygon points="970.241 -11.272 982.376 -23.407 982.376 45.971 994.511 33.836 994.511 58.106 970.241 82.377 945.971 58.106 945.971 33.836 958.106 45.971 958.106 -23.407 970.241 -11.272" style="fill: #8c28ff"/>
        <polygon points="688.225 -18.133 700.36 -30.269 700.36 6.109 712.496 -6.026 712.496 18.244 688.225 42.515 663.955 18.244 663.955 -6.026 676.09 6.109 676.09 -30.269 688.225 -18.133" style="fill: #8c28ff"/>
        <polygon points="866.401 115.811 874.982 115.811 840.891 81.72 845.181 77.429 828.019 77.429 828.019 94.591 832.31 90.3 866.401 124.392 866.401 115.811" style="fill: #ff4164"/>
        <polygon points="740.223 47.649 740.223 39.069 721.1 58.192 716.809 53.902 716.809 71.063 733.971 71.063 729.68 66.773 748.804 47.649 740.223 47.649" style="fill: #ff4164"/>
        <polygon points="734.147 23.902 740.215 29.969 740.215 0.057 746.282 0.057 734.147 -12.079 722.012 0.057 728.079 0.057 728.079 29.969 734.147 23.902" style="fill: #0f9bff"/>
        <polygon points="825.162 53.74 819.095 59.808 854.178 59.808 854.178 65.875 866.313 53.74 854.178 41.605 854.178 47.672 819.095 47.672 825.162 53.74" style="fill: #0f9bff"/>
        <g>
          <path d="M758.59377-29.96914h19.79461c17.48191,0,20.47876,10.08993,20.47876,16.28347,0,2.59716-.99881,11.28815-6.8928,14.285v.99923c6.09363,2.39731,7.7919,8.49115,7.7919,12.98664,0,7.69175-3.99587,15.38394-21.5777,15.38394H758.59377Zm25.189,17.88182c0-5.095-3.49625-5.4943-7.19256-5.4943h-2.912V-6.39318h2.912C780.2865-6.39318,783.78275-6.89258,783.78275-12.08732Zm.8991,23.87508c0-5.29444-3.59639-5.69414-7.49234-5.69414h-3.51136V17.58205h3.51136C781.08546,17.58205,784.68185,17.18235,784.68185,11.78776Z" style="fill: #ff4164"/>
          <path d="M805.99863,29.96914V-29.96914h33.18073v12.78679H821.083V-6.39318h12.40219V6.09362H821.083V17.18235h18.09634V29.96914Z" style="fill: #ff4164"/>
          <path d="M893.61535,29.96914H879.03059L876.13345,16.8828h-13.701l-2.89692,13.08634h-14.585L858.137-29.96914h22.29206ZM869.56157-13.88552h-.557L865.22967,4.39557h8.60618Z" style="fill: #ff4164"/>
          <path d="M898.75894-29.96914h19.69469c19.87943,0,23.07613,15.88378,23.07613,30.1692,0,14.285-3.1967,29.76908-23.07613,29.76908H898.75894ZM926.44538.39991c0-11.58813-2.39753-17.58226-7.99175-17.58226h-4.6103v34.3647h4.6103C924.04785,17.18235,926.44538,12.08775,926.44538.39991Z" style="fill: #ff4164"/>
        </g>
      </g>
      <rect x="699.04946" y="-150.11137" width="300.22389" height="300.22389" transform="translate(248.71321 600.44796) rotate(-45)" style="fill: none"/>
    </g>
    <g>
      <g>
        <polygon points="1052.333 56.151 1058.401 50.083 1026.277 50.083 1026.277 44.016 1014.141 56.151 1026.277 68.286 1026.277 62.219 1058.401 62.219 1052.333 56.151" style="fill: #ff4164"/>
        <polygon points="1008.963 354.562 1008.963 363.143 1091.372 280.734 1095.662 285.025 1095.662 267.863 1078.501 267.863 1082.791 272.153 1000.382 354.562 1008.963 354.562" style="fill: #ff4164"/>
        <polygon points="1173.138 249.1 1164.557 249.1 1187.744 272.287 1183.454 276.578 1200.615 276.578 1200.615 259.416 1196.325 263.706 1173.138 240.52 1173.138 249.1" style="fill: #ff4164"/>
        <polygon points="1076.183 188.518 1070.116 182.45 1070.116 240.511 1064.048 240.511 1076.183 252.646 1088.318 240.511 1082.251 240.511 1082.251 182.45 1076.183 188.518" style="fill: #0f9bff"/>
        <polygon points="870.873 216.581 870.873 225.162 941.969 154.065 946.26 158.356 946.26 141.194 929.098 141.194 933.389 145.484 862.292 216.581 870.873 216.581" style="fill: #ff4164"/>
        <polygon points="1209.449 173.991 1218.03 173.991 1196.435 152.397 1200.726 148.106 1183.564 148.106 1183.564 165.268 1187.855 160.977 1209.449 182.572 1209.449 173.991" style="fill: #ff4164"/>
        <polygon points="1084.988 49.538 1093.568 49.538 1065.742 21.712 1070.033 17.421 1052.871 17.421 1052.871 34.583 1057.161 30.293 1084.988 58.119 1084.988 49.538" style="fill: #0f9bff"/>
        <polygon points="1043.398 132.947 1051.979 132.947 1003.243 84.211 1007.533 79.921 990.371 79.921 990.371 97.083 994.662 92.792 1043.398 141.528 1043.398 132.947" style="fill: #0f9bff"/>
        <polygon points="1163.184 127.734 1180.345 127.734 1143.415 164.665 1160.577 164.665 1143.415 181.826 1109.092 181.826 1109.092 147.503 1126.253 130.341 1126.253 147.503 1163.184 110.573 1163.184 127.734" style="fill: #8c28ff"/>
        <polygon points="1157.195 302.828 1157.195 319.989 1126.262 289.056 1126.262 306.218 1109.101 289.057 1109.101 254.733 1143.424 254.733 1160.586 271.895 1143.424 271.895 1174.357 302.828 1157.195 302.828" style="fill: #8c28ff"/>
        <polygon points="996.656 316.605 996.656 333.767 913.903 251.013 913.903 268.175 896.741 251.013 896.741 216.69 931.065 216.69 948.226 233.852 931.065 233.852 1013.818 316.605 996.656 316.605" style="fill: #8c28ff"/>
        <polygon points="1209.05 233.819 1191.889 233.819 1213.417 212.291 1196.255 212.291 1213.417 195.129 1247.74 195.129 1247.74 229.453 1230.579 246.614 1230.579 229.452 1209.05 250.981 1209.05 233.819" style="fill: #8c28ff"/>
        <polygon points="966.465 120.979 966.465 103.818 1034.676 172.028 1034.676 154.866 1051.837 172.028 1051.838 206.352 1017.514 206.352 1000.352 189.19 1017.514 189.19 949.303 120.979 966.465 120.979" style="fill: #8c28ff"/>
        <polygon points="1050.179 91.211 1038.044 79.076 1107.422 79.076 1095.287 66.941 1119.558 66.941 1143.828 91.211 1119.558 115.482 1095.287 115.482 1107.423 103.346 1038.044 103.346 1050.179 91.211" style="fill: #8c28ff"/>
        <polygon points="1043.318 373.227 1031.183 361.092 1067.561 361.092 1055.425 348.957 1079.696 348.957 1103.966 373.227 1079.696 397.497 1055.425 397.497 1067.561 385.362 1031.183 385.362 1043.318 373.227" style="fill: #8c28ff"/>
        <polygon points="1027.647 231.993 1039.782 219.858 1039.782 264.192 1051.917 252.057 1051.917 276.327 1027.647 300.597 1003.376 276.327 1003.376 252.057 1015.511 264.192 1015.511 219.858 1027.647 231.993" style="fill: #8c28ff"/>
        <polygon points="985.454 188.552 991.522 182.485 943.369 182.485 943.369 176.417 931.234 188.552 943.369 200.687 943.369 194.62 991.522 194.62 985.454 188.552" style="fill: #0f9bff"/>
        <polygon points="1177.262 195.051 1177.262 186.47 1143.171 220.562 1138.88 216.271 1138.88 233.433 1156.042 233.433 1151.752 229.143 1185.843 195.051 1177.262 195.051" style="fill: #0f9bff"/>
        <polygon points="973.951 217.091 967.883 211.023 967.883 247.583 961.816 247.583 973.951 259.718 986.086 247.583 980.018 247.583 980.018 211.023 973.951 217.091" style="fill: #ff4164"/>
        <polygon points="1065.52 157.357 1065.52 165.938 1091.372 140.087 1095.662 144.377 1095.662 127.215 1078.501 127.215 1082.791 131.506 1056.94 157.357 1065.52 157.357" style="fill: #ff4164"/>
        <polygon points="1090.068 312.805 1081.487 312.805 1114.339 345.657 1110.049 349.947 1127.211 349.947 1127.211 332.786 1122.92 337.076 1090.068 304.224 1090.068 312.805" style="fill: #0f9bff"/>
        <polygon points="1115.191 236.29 1121.259 242.358 1121.259 207.274 1127.326 207.274 1115.191 195.139 1103.056 207.274 1109.124 207.274 1109.124 242.358 1115.191 236.29" style="fill: #ff4164"/>
      </g>
      <rect x="911.33981" y="62.17898" width="300.22389" height="300.22389" transform="translate(1661.89914 1112.96302) rotate(-135)" style="fill: none"/>
    </g>
    <g>
      <g>
        <polygon points="480.731 203.172 474.664 209.24 474.664 177.116 468.596 177.116 480.731 164.981 492.866 177.116 486.799 177.116 486.799 209.24 480.731 203.172" style="fill: #ff4164"/>
        <polygon points="779.142 159.802 787.723 159.802 705.314 242.211 709.605 246.501 692.443 246.501 692.443 229.34 696.733 233.63 779.142 151.222 779.142 159.802" style="fill: #ff4164"/>
        <polygon points="673.681 323.977 673.681 315.397 696.867 338.583 701.158 334.293 701.158 351.455 683.996 351.455 688.286 347.164 665.1 323.977 673.681 323.977" style="fill: #ff4164"/>
        <polygon points="613.098 227.022 607.03 220.955 665.091 220.955 665.091 214.887 677.226 227.022 665.091 239.157 665.091 233.09 607.03 233.09 613.098 227.022" style="fill: #0f9bff"/>
        <polygon points="641.161 21.712 649.742 21.712 578.645 92.809 582.936 97.099 565.774 97.099 565.774 79.937 570.065 84.228 641.161 13.131 641.161 21.712" style="fill: #ff4164"/>
        <polygon points="598.571 360.289 598.571 368.869 576.977 347.275 572.686 351.565 572.686 334.403 589.848 334.403 585.558 338.694 607.152 360.289 598.571 360.289" style="fill: #ff4164"/>
        <polygon points="474.118 235.827 474.118 244.408 446.292 216.581 442.001 220.872 442.001 203.71 459.163 203.71 454.873 208.001 482.699 235.827 474.118 235.827" style="fill: #0f9bff"/>
        <polygon points="557.528 194.237 557.528 202.818 508.792 154.082 504.501 158.372 504.501 141.21 521.663 141.21 517.372 145.501 566.108 194.237 557.528 194.237" style="fill: #0f9bff"/>
        <polygon points="552.314 314.023 552.314 331.185 589.245 294.254 589.245 311.416 606.407 294.254 606.407 259.931 572.083 259.931 554.922 277.092 572.083 277.092 535.153 314.023 552.314 314.023" style="fill: #8c28ff"/>
        <polygon points="727.408 308.034 744.569 308.034 713.637 277.101 730.798 277.101 713.637 259.94 679.313 259.94 679.313 294.263 696.475 311.425 696.475 294.263 727.408 325.196 727.408 308.034" style="fill: #8c28ff"/>
        <polygon points="741.185 147.495 758.347 147.495 675.593 64.742 692.755 64.742 675.594 47.58 641.27 47.58 641.27 81.904 658.432 99.065 658.432 81.904 741.185 164.657 741.185 147.495" style="fill: #8c28ff"/>
        <polygon points="658.399 359.889 658.399 342.728 636.871 364.256 636.871 347.094 619.709 364.256 619.709 398.58 654.033 398.58 671.194 381.418 654.033 381.418 675.561 359.89 658.399 359.889" style="fill: #8c28ff"/>
        <polygon points="545.559 117.304 528.398 117.304 596.608 185.515 579.447 185.515 596.608 202.677 630.932 202.677 630.932 168.353 613.77 151.192 613.77 168.353 545.559 100.143 545.559 117.304" style="fill: #8c28ff"/>
        <polygon points="515.791 201.018 503.656 188.883 503.656 258.262 491.521 246.126 491.521 270.397 515.791 294.667 540.062 270.397 540.062 246.127 527.927 258.262 527.927 188.883 515.791 201.018" style="fill: #8c28ff"/>
        <polygon points="797.807 194.157 785.672 182.022 785.672 218.4 773.537 206.265 773.537 230.535 797.807 254.805 822.077 230.535 822.077 206.265 809.942 218.4 809.942 182.022 797.807 194.157" style="fill: #8c28ff"/>
        <polygon points="656.573 178.486 644.438 190.621 688.772 190.621 676.637 202.756 700.907 202.756 725.178 178.486 700.907 154.216 676.637 154.216 688.772 166.351 644.438 166.351 656.573 178.486" style="fill: #8c28ff"/>
        <polygon points="613.132 136.293 607.065 142.361 607.065 94.208 600.997 94.208 613.132 82.073 625.267 94.208 619.2 94.208 619.2 142.361 613.132 136.293" style="fill: #0f9bff"/>
        <polygon points="619.631 328.102 611.05 328.102 645.142 294.01 640.851 289.719 658.013 289.719 658.013 306.881 653.723 302.591 619.631 336.682 619.631 328.102" style="fill: #0f9bff"/>
        <polygon points="641.671 124.79 635.603 118.722 672.163 118.722 672.163 112.655 684.298 124.79 672.163 136.925 672.163 130.858 635.603 130.858 641.671 124.79" style="fill: #ff4164"/>
        <polygon points="581.937 216.36 590.518 216.36 564.667 242.211 568.957 246.501 551.796 246.501 551.796 229.34 556.086 233.63 581.937 207.779 581.937 216.36" style="fill: #ff4164"/>
        <polygon points="737.385 240.907 737.385 232.326 770.237 265.179 774.527 260.888 774.527 278.05 757.366 278.05 761.656 273.759 728.804 240.907 737.385 240.907" style="fill: #0f9bff"/>
        <polygon points="660.87 266.03 666.938 272.098 631.854 272.098 631.854 278.165 619.719 266.03 631.854 253.895 631.854 259.963 666.938 259.963 660.87 266.03" style="fill: #ff4164"/>
      </g>
      <rect x="486.75911" y="62.17898" width="300.22389" height="300.22389" transform="translate(937.09454 812.73913) rotate(-135)" style="fill: none"/>
    </g>
    <g>
      <g>
        <polygon points="1326.231 142.272 1326.231 150.852 1243.822 68.444 1239.532 72.734 1239.532 55.573 1256.693 55.573 1252.403 59.863 1334.811 142.272 1326.231 142.272" style="fill: #ff4164"/>
        <polygon points="1162.056 36.81 1170.636 36.81 1147.45 59.997 1151.74 64.287 1134.578 64.287 1134.578 47.126 1138.869 51.416 1162.056 28.229 1162.056 36.81" style="fill: #ff4164"/>
        <polygon points="1259.011 -23.773 1265.078 -29.84 1265.078 28.221 1271.146 28.221 1259.011 40.356 1246.876 28.221 1252.943 28.221 1252.943 -29.84 1259.011 -23.773" style="fill: #0f9bff"/>
        <polygon points="1177.999 90.537 1177.999 107.699 1208.932 76.766 1208.932 93.928 1226.093 76.766 1226.093 42.443 1191.77 42.443 1174.608 59.604 1191.77 59.604 1160.837 90.537 1177.999 90.537" style="fill: #8c28ff"/>
        <polygon points="1126.144 21.529 1143.305 21.529 1121.777 0 1138.939 0 1121.777 -17.161 1087.453 -17.161 1087.453 17.162 1104.615 34.324 1104.615 17.162 1126.144 38.691 1126.144 21.529" style="fill: #8c28ff"/>
        <polygon points="1291.876 160.937 1304.011 148.802 1267.633 148.802 1279.768 136.666 1255.498 136.666 1231.228 160.937 1255.498 185.207 1279.768 185.207 1267.633 173.072 1304.011 173.072 1291.876 160.937" style="fill: #8c28ff"/>
        <polygon points="1157.931 -17.24 1157.931 -25.82 1192.023 8.271 1196.314 3.981 1196.314 21.143 1179.152 21.143 1183.442 16.852 1149.351 -17.239 1157.931 -17.24" style="fill: #0f9bff"/>
        <polygon points="1245.126 100.514 1253.707 100.514 1220.855 133.366 1225.145 137.657 1207.983 137.657 1207.983 120.495 1212.274 124.786 1245.126 91.933 1245.126 100.514" style="fill: #0f9bff"/>
        <polygon points="1220.003 24 1213.935 30.067 1213.935 -5.016 1207.868 -5.016 1220.003 -17.151 1232.138 -5.016 1226.07 -5.016 1226.07 30.067 1220.003 24" style="fill: #ff4164"/>
      </g>
      <rect x="1123.63016" y="-150.11137" width="300.22389" height="300.22389" transform="translate(373.07002 900.67185) rotate(-45)" style="fill: none"/>
    </g>
    <g>
      <g>
        <polygon points="840.043 580.721 846.11 586.789 813.986 586.789 813.986 592.856 801.851 580.721 813.986 568.586 813.986 574.654 846.11 574.654 840.043 580.721" style="fill: #ff4164"/>
        <polygon points="796.673 282.31 796.673 273.729 879.081 356.138 883.372 351.848 883.372 369.009 866.21 369.009 870.501 364.719 788.092 282.31 796.673 282.31" style="fill: #ff4164"/>
        <polygon points="960.848 387.772 952.267 387.772 975.454 364.585 971.163 360.295 988.325 360.295 988.325 377.456 984.035 373.166 960.848 396.353 960.848 387.772" style="fill: #ff4164"/>
        <polygon points="863.893 448.355 857.825 454.422 857.825 396.361 851.758 396.361 863.893 384.226 876.028 396.361 869.96 396.361 869.96 454.422 863.893 448.355" style="fill: #0f9bff"/>
        <polygon points="658.582 420.291 658.582 411.71 729.679 482.807 733.97 478.516 733.97 495.678 716.808 495.678 721.098 491.388 650.001 420.291 658.582 420.291" style="fill: #ff4164"/>
        <polygon points="997.159 462.881 1005.74 462.881 984.145 484.476 988.436 488.766 971.274 488.766 971.274 471.604 975.564 475.895 997.159 454.3 997.159 462.881" style="fill: #ff4164"/>
        <polygon points="872.697 587.334 881.278 587.334 853.452 615.16 857.742 619.451 840.581 619.451 840.581 602.289 844.871 606.58 872.697 578.753 872.697 587.334" style="fill: #0f9bff"/>
        <polygon points="831.107 503.925 839.688 503.925 790.952 552.661 795.243 556.951 778.081 556.951 778.081 539.79 782.371 544.08 831.107 495.344 831.107 503.925" style="fill: #0f9bff"/>
        <polygon points="950.893 509.138 968.055 509.138 931.125 472.207 948.286 472.207 931.125 455.046 896.801 455.046 896.801 489.369 913.963 506.531 913.963 489.369 950.893 526.3 950.893 509.138" style="fill: #8c28ff"/>
        <polygon points="944.905 334.045 944.905 316.883 913.972 347.816 913.972 330.654 896.81 347.816 896.81 382.139 931.134 382.139 948.295 364.977 931.134 364.977 962.066 334.045 944.905 334.045" style="fill: #8c28ff"/>
        <polygon points="784.366 320.267 784.366 303.106 701.612 385.859 701.613 368.697 684.451 385.859 684.451 420.182 718.774 420.182 735.936 403.021 718.774 403.021 801.527 320.267 784.366 320.267" style="fill: #8c28ff"/>
        <polygon points="996.76 403.053 979.598 403.053 1001.127 424.581 983.965 424.581 1001.127 441.743 1035.45 441.743 1035.45 407.42 1018.288 390.258 1018.288 407.42 996.76 385.891 996.76 403.053" style="fill: #8c28ff"/>
        <polygon points="754.175 515.893 754.175 533.055 822.385 464.844 822.385 482.006 839.547 464.844 839.547 430.521 805.224 430.521 788.062 447.682 805.224 447.682 737.013 515.893 754.175 515.893" style="fill: #8c28ff"/>
        <polygon points="837.889 545.661 825.754 557.796 895.132 557.796 882.997 569.931 907.267 569.931 931.538 545.661 907.267 521.391 882.997 521.391 895.132 533.526 825.754 533.526 837.889 545.661" style="fill: #8c28ff"/>
        <polygon points="831.027 263.645 818.892 275.78 855.27 275.78 843.135 287.915 867.405 287.915 891.676 263.645 867.405 239.375 843.135 239.375 855.27 251.51 818.892 251.51 831.027 263.645" style="fill: #8c28ff"/>
        <polygon points="815.356 404.879 827.491 417.014 827.491 372.68 839.627 384.815 839.627 360.545 815.356 336.275 791.086 360.545 791.086 384.815 803.221 372.68 803.221 417.014 815.356 404.879" style="fill: #8c28ff"/>
        <polygon points="773.164 448.32 779.231 454.388 731.079 454.388 731.079 460.455 718.943 448.32 731.079 436.185 731.079 442.253 779.231 442.253 773.164 448.32" style="fill: #0f9bff"/>
        <polygon points="964.972 441.821 964.972 450.402 930.88 416.31 926.59 420.601 926.59 403.439 943.752 403.439 939.461 407.73 973.553 441.821 964.972 441.821" style="fill: #0f9bff"/>
        <polygon points="761.66 419.781 755.593 425.849 755.593 389.29 749.525 389.29 761.66 377.155 773.796 389.29 767.728 389.29 767.728 425.849 761.66 419.781" style="fill: #ff4164"/>
        <polygon points="853.23 479.515 853.23 470.934 879.081 496.785 883.372 492.495 883.372 509.657 866.21 509.657 870.501 505.366 844.649 479.515 853.23 479.515" style="fill: #ff4164"/>
        <polygon points="877.778 324.068 869.197 324.068 902.049 291.215 897.759 286.925 914.92 286.925 914.92 304.087 910.63 299.796 877.778 332.649 877.778 324.068" style="fill: #0f9bff"/>
        <polygon points="902.901 400.582 908.968 394.514 908.968 429.598 915.036 429.598 902.901 441.733 890.766 429.598 896.833 429.598 896.833 394.514 902.901 400.582" style="fill: #ff4164"/>
      </g>
      <rect x="699.04946" y="274.46933" width="300.22389" height="300.22389" transform="translate(1749.8335 124.3578) rotate(135)" style="fill: none"/>
    </g>
    <g>
      <g>
        <polygon points="477.069 142.272 477.069 150.852 394.661 68.444 390.37 72.734 390.37 55.573 407.532 55.573 403.241 59.863 485.65 142.272 477.069 142.272" style="fill: #ff4164"/>
        <polygon points="312.894 36.81 321.475 36.81 298.288 59.997 302.579 64.287 285.417 64.287 285.417 47.126 289.707 51.416 312.894 28.229 312.894 36.81" style="fill: #ff4164"/>
        <polygon points="409.849 -23.773 415.917 -29.84 415.917 28.221 421.984 28.221 409.849 40.356 397.714 28.221 403.782 28.221 403.782 -29.84 409.849 -23.773" style="fill: #0f9bff"/>
        <polygon points="615.16 4.291 615.16 12.872 544.063 -58.225 539.773 -53.935 539.773 -71.096 556.934 -71.096 552.644 -66.806 623.741 4.291 615.16 4.291" style="fill: #ff4164"/>
        <polygon points="328.837 90.537 328.837 107.699 359.77 76.766 359.77 93.928 376.932 76.766 376.932 42.443 342.609 42.443 325.447 59.604 342.609 59.604 311.676 90.537 328.837 90.537" style="fill: #8c28ff"/>
        <polygon points="489.376 104.315 489.376 121.476 572.13 38.723 572.13 55.885 589.291 38.723 589.291 4.4 554.968 4.4 537.806 21.561 554.968 21.561 472.215 104.315 489.376 104.315" style="fill: #8c28ff"/>
        <polygon points="276.982 21.529 294.144 21.529 272.615 0 289.777 0 272.616 -17.161 238.292 -17.161 238.292 17.162 255.454 34.324 255.454 17.162 276.982 38.691 276.982 21.529" style="fill: #8c28ff"/>
        <polygon points="442.715 160.937 454.85 148.802 418.472 148.802 430.607 136.666 406.337 136.666 382.066 160.937 406.337 185.207 430.607 185.207 418.472 173.072 454.85 173.072 442.715 160.937" style="fill: #8c28ff"/>
        <polygon points="458.386 19.703 446.251 7.568 446.251 51.902 434.116 39.767 434.116 64.037 458.386 88.307 482.656 64.037 482.656 39.767 470.521 51.902 470.521 7.568 458.386 19.703" style="fill: #8c28ff"/>
        <polygon points="308.77 -17.24 308.77 -25.82 342.862 8.271 347.152 3.981 347.152 21.143 329.991 21.143 334.281 16.852 300.189 -17.239 308.77 -17.24" style="fill: #0f9bff"/>
        <polygon points="512.082 4.8 518.149 -1.267 518.149 35.292 524.217 35.292 512.082 47.427 499.947 35.292 506.014 35.292 506.014 -1.267 512.082 4.8" style="fill: #ff4164"/>
        <polygon points="395.965 100.514 404.545 100.514 371.693 133.366 375.984 137.657 358.822 137.657 358.822 120.495 363.112 124.786 395.965 91.933 395.965 100.514" style="fill: #0f9bff"/>
        <polygon points="370.841 24 364.774 30.067 364.774 -5.016 358.706 -5.016 370.841 -17.151 382.976 -5.016 376.909 -5.016 376.909 30.067 370.841 24" style="fill: #ff4164"/>
      </g>
      <rect x="274.46876" y="-150.11137" width="300.22389" height="300.22389" transform="translate(124.3564 300.22406) rotate(-45)" style="fill: none"/>
    </g>
  </g>
  <g>
    <rect x="-362.4023" y="-362.40172" width="300.22389" height="300.22389" transform="translate(-212.28994 87.93371) rotate(45)" style="fill: none"/>
    <rect x="-362.4023" y="62.17898" width="300.22389" height="300.22389" transform="translate(-512.51465 212.29134) rotate(-135)" style="fill: none"/>
    <g>
      <g>
        <polygon points="52.489 142.272 52.489 150.852 -29.92 68.444 -34.21 72.734 -34.21 55.573 -17.049 55.573 -21.339 59.863 61.069 142.272 52.489 142.272" style="fill: #ff4164"/>
        <polygon points="190.579 4.291 190.579 12.872 119.482 -58.225 115.192 -53.935 115.192 -71.096 132.354 -71.096 128.063 -66.806 199.16 4.291 190.579 4.291" style="fill: #ff4164"/>
        <polygon points="64.796 104.315 64.796 121.476 147.549 38.723 147.549 55.885 164.711 38.723 164.711 4.4 130.387 4.4 113.226 21.561 130.387 21.561 47.634 104.315 64.796 104.315" style="fill: #8c28ff"/>
        <polygon points="18.134 160.937 30.269 148.802 -6.109 148.802 6.026 136.666 -18.244 136.666 -42.514 160.937 -18.244 185.207 6.026 185.207 -6.109 173.072 30.269 173.072 18.134 160.937" style="fill: #8c28ff"/>
        <polygon points="33.805 19.703 21.67 7.568 21.67 51.902 9.535 39.767 9.535 64.037 33.805 88.307 58.075 64.037 58.075 39.767 45.94 51.902 45.94 7.568 33.805 19.703" style="fill: #8c28ff"/>
        <polygon points="87.501 4.8 93.569 -1.267 93.569 35.292 99.636 35.292 87.501 47.427 75.366 35.292 81.433 35.292 81.433 -1.267 87.501 4.8" style="fill: #ff4164"/>
      </g>
      <rect x="-150.11195" y="-150.11137" width="300.22389" height="300.22389" transform="translate(-0.00041 0.00017) rotate(-45)" style="fill: none"/>
    </g>
  </g>
  <g>
    <rect x="-362.4023" y="911.34039" width="300.22389" height="300.22389" transform="translate(688.38174 461.00414) rotate(45)" style="fill: none"/>
    <rect x="-362.4023" y="1335.92109" width="300.22389" height="300.22389" transform="translate(-1413.18634 2386.70513) rotate(-135)" style="fill: none"/>
    <g>
      <g>
        <polygon points="9.119 1117.603 3.051 1111.535 35.175 1111.535 35.175 1105.468 47.31 1117.603 35.175 1129.738 35.175 1123.67 3.051 1123.67 9.119 1117.603" style="fill: #ff4164"/>
        <polygon points="190.579 1278.033 190.579 1286.614 119.482 1215.517 115.192 1219.807 115.192 1202.646 132.354 1202.646 128.063 1206.936 199.16 1278.033 190.579 1278.033" style="fill: #ff4164"/>
        <polygon points="-23.536 1110.99 -32.117 1110.99 -4.29 1083.164 -8.581 1078.873 8.581 1078.873 8.581 1096.035 4.29 1091.744 -23.536 1119.571 -23.536 1110.99" style="fill: #0f9bff"/>
        <polygon points="18.054 1194.399 9.473 1194.399 58.209 1145.663 53.919 1141.373 71.08 1141.373 71.08 1158.534 66.79 1154.244 18.054 1202.98 18.054 1194.399" style="fill: #0f9bff"/>
        <polygon points="94.987 1182.431 94.987 1165.269 26.776 1233.48 26.776 1216.318 9.614 1233.48 9.614 1267.803 43.938 1267.803 61.099 1250.642 43.938 1250.642 112.148 1182.431 94.987 1182.431" style="fill: #8c28ff"/>
        <polygon points="11.273 1152.663 23.408 1140.528 -45.971 1140.528 -33.836 1128.393 -58.106 1128.393 -82.376 1152.663 -58.106 1176.933 -33.836 1176.933 -45.971 1164.798 23.408 1164.798 11.273 1152.663" style="fill: #8c28ff"/>
        <polygon points="75.998 1250.004 69.93 1243.936 118.083 1243.936 118.083 1237.869 130.218 1250.004 118.083 1262.139 118.083 1256.071 69.93 1256.071 75.998 1250.004" style="fill: #0f9bff"/>
        <polygon points="87.501 1278.543 93.569 1272.475 93.569 1309.034 99.636 1309.034 87.501 1321.169 75.366 1309.034 81.433 1309.034 81.433 1272.475 87.501 1278.543" style="fill: #ff4164"/>
        <polygon points="-4.069 1218.809 -4.069 1227.39 -29.92 1201.538 -34.21 1205.829 -34.21 1188.667 -17.049 1188.667 -21.339 1192.958 4.512 1218.809 -4.069 1218.809" style="fill: #ff4164"/>
      </g>
      <rect x="-150.11195" y="1123.63074" width="300.22389" height="300.22389" transform="translate(-900.67209 373.0706) rotate(-45)" style="fill: none"/>
    </g>
  </g>
  <g>
    <g>
      <g>
        <polygon points="645.99 1217.592 639.922 1223.66 672.046 1223.66 672.046 1229.727 684.181 1217.592 672.046 1205.457 672.046 1211.525 639.922 1211.525 645.99 1217.592" style="fill: #ff4164"/>
        <polygon points="689.36 919.181 689.36 910.601 606.951 993.009 602.661 988.719 602.661 1005.88 619.822 1005.88 615.532 1001.59 697.94 919.181 689.36 919.181" style="fill: #ff4164"/>
        <polygon points="525.185 1024.643 533.765 1024.643 510.579 1001.456 514.869 997.166 497.707 997.166 497.707 1014.327 501.998 1010.037 525.185 1033.224 525.185 1024.643" style="fill: #ff4164"/>
        <polygon points="622.14 1085.226 628.207 1091.293 628.207 1033.232 634.275 1033.232 622.14 1021.097 610.005 1033.232 616.072 1033.232 616.072 1091.293 622.14 1085.226" style="fill: #0f9bff"/>
        <polygon points="827.45 1057.162 827.45 1048.581 756.353 1119.678 752.063 1115.388 752.063 1132.549 769.225 1132.549 764.934 1128.259 836.031 1057.162 827.45 1057.162" style="fill: #ff4164"/>
        <polygon points="488.873 1099.752 480.293 1099.752 501.887 1121.347 497.597 1125.637 514.759 1125.637 514.759 1108.475 510.468 1112.766 488.873 1091.171 488.873 1099.752" style="fill: #ff4164"/>
        <polygon points="613.335 1224.205 604.754 1224.205 632.581 1252.032 628.29 1256.322 645.452 1256.322 645.452 1239.16 641.161 1243.451 613.335 1215.624 613.335 1224.205" style="fill: #0f9bff"/>
        <polygon points="654.925 1140.796 646.344 1140.796 695.08 1189.532 690.79 1193.822 707.952 1193.822 707.952 1176.661 703.661 1180.951 654.925 1132.215 654.925 1140.796" style="fill: #0f9bff"/>
        <polygon points="535.139 1146.009 517.977 1146.009 554.908 1109.078 537.746 1109.078 554.908 1091.917 589.231 1091.917 589.231 1126.24 572.07 1143.402 572.07 1126.24 535.139 1163.171 535.139 1146.009" style="fill: #8c28ff"/>
        <polygon points="541.128 970.916 541.128 953.754 572.061 984.687 572.061 967.525 589.222 984.687 589.222 1019.01 554.899 1019.01 537.737 1001.848 554.899 1001.848 523.966 970.916 541.128 970.916" style="fill: #8c28ff"/>
        <polygon points="701.667 957.138 701.667 939.977 784.42 1022.73 784.42 1005.568 801.582 1022.73 801.582 1057.053 767.258 1057.053 750.097 1039.892 767.258 1039.892 684.505 957.138 701.667 957.138" style="fill: #8c28ff"/>
        <polygon points="489.272 1039.924 506.434 1039.924 484.906 1061.452 502.068 1061.452 484.906 1078.614 450.582 1078.614 450.582 1044.291 467.744 1027.129 467.744 1044.291 489.272 1022.762 489.272 1039.924" style="fill: #8c28ff"/>
        <polygon points="731.858 1152.764 731.858 1169.926 663.647 1101.715 663.647 1118.877 646.485 1101.715 646.485 1067.392 680.809 1067.392 697.97 1084.553 680.809 1084.553 749.019 1152.764 731.858 1152.764" style="fill: #8c28ff"/>
        <polygon points="648.144 1182.532 660.279 1194.667 590.9 1194.667 603.036 1206.802 578.765 1206.802 554.495 1182.532 578.765 1158.262 603.035 1158.262 590.9 1170.397 660.279 1170.397 648.144 1182.532" style="fill: #8c28ff"/>
        <polygon points="655.005 900.516 667.14 912.651 630.762 912.651 642.897 924.787 618.627 924.787 594.357 900.516 618.627 876.246 642.897 876.246 630.762 888.381 667.14 888.381 655.005 900.516" style="fill: #8c28ff"/>
        <polygon points="670.676 1041.75 658.541 1053.885 658.541 1009.551 646.406 1021.686 646.406 997.416 670.676 973.146 694.946 997.416 694.946 1021.686 682.811 1009.551 682.811 1053.885 670.676 1041.75" style="fill: #8c28ff"/>
        <polygon points="712.869 1085.191 706.801 1091.259 754.954 1091.259 754.954 1097.326 767.089 1085.191 754.954 1073.056 754.954 1079.124 706.801 1079.124 712.869 1085.191" style="fill: #0f9bff"/>
        <polygon points="521.06 1078.692 521.06 1087.273 555.152 1053.182 559.443 1057.472 559.443 1040.31 542.281 1040.31 546.571 1044.601 512.48 1078.692 521.06 1078.692" style="fill: #0f9bff"/>
        <polygon points="724.372 1056.653 730.44 1062.72 730.44 1026.161 736.507 1026.161 724.372 1014.026 712.237 1026.161 718.304 1026.161 718.304 1062.72 724.372 1056.653" style="fill: #ff4164"/>
        <polygon points="632.802 1116.386 632.802 1107.805 606.951 1133.657 602.661 1129.366 602.661 1146.528 619.822 1146.528 615.532 1142.237 641.383 1116.386 632.802 1116.386" style="fill: #ff4164"/>
        <polygon points="608.255 960.939 616.836 960.939 583.983 928.086 588.274 923.796 571.112 923.796 571.112 940.958 575.403 936.667 608.255 969.52 608.255 960.939" style="fill: #0f9bff"/>
        <polygon points="583.132 1037.453 577.064 1031.385 577.064 1066.469 570.997 1066.469 583.132 1078.604 595.267 1066.469 589.199 1066.469 589.199 1031.385 583.132 1037.453" style="fill: #ff4164"/>
      </g>
      <rect x="486.75911" y="911.34039" width="300.22389" height="300.22389" transform="translate(937.09536 -139.44365) rotate(45)" style="fill: none"/>
    </g>
    <g>
      <g>
        <polygon points="1217.592 1070.571 1223.659 1064.504 1223.659 1096.628 1229.727 1096.628 1217.592 1108.763 1205.457 1096.628 1211.524 1096.628 1211.524 1064.504 1217.592 1070.571" style="fill: #ff4164"/>
        <polygon points="919.181 1113.941 910.6 1113.941 993.009 1031.532 988.718 1027.242 1005.88 1027.242 1005.88 1044.404 1001.589 1040.113 919.181 1122.522 919.181 1113.941" style="fill: #ff4164"/>
        <polygon points="1024.642 949.766 1024.642 958.347 1001.456 935.16 997.165 939.45 997.165 922.289 1014.327 922.289 1010.036 926.579 1033.223 949.766 1024.642 949.766" style="fill: #ff4164"/>
        <polygon points="1085.225 1046.721 1091.293 1052.789 1033.232 1052.789 1033.232 1058.856 1021.097 1046.721 1033.232 1034.586 1033.232 1040.653 1091.293 1040.653 1085.225 1046.721" style="fill: #0f9bff"/>
        <polygon points="1057.161 1252.031 1048.581 1252.031 1119.677 1180.935 1115.387 1176.644 1132.549 1176.644 1132.549 1193.806 1128.258 1189.515 1057.161 1260.612 1057.161 1252.031" style="fill: #ff4164"/>
        <polygon points="1099.751 913.455 1099.751 904.874 1121.346 926.469 1125.637 922.178 1125.637 939.34 1108.475 939.34 1112.765 935.049 1091.171 913.455 1099.751 913.455" style="fill: #ff4164"/>
        <polygon points="1224.205 1037.917 1224.205 1029.336 1252.031 1057.162 1256.321 1052.871 1256.321 1070.033 1239.16 1070.033 1243.45 1065.743 1215.624 1037.917 1224.205 1037.917" style="fill: #0f9bff"/>
        <polygon points="1140.795 1079.506 1140.795 1070.926 1189.531 1119.662 1193.822 1115.371 1193.822 1132.533 1176.66 1132.533 1180.95 1128.242 1132.214 1079.506 1140.795 1079.506" style="fill: #0f9bff"/>
        <polygon points="1146.008 959.72 1146.008 942.559 1109.078 979.489 1109.078 962.327 1091.916 979.489 1091.916 1013.813 1126.24 1013.812 1143.401 996.651 1126.24 996.651 1163.17 959.72 1146.008 959.72" style="fill: #8c28ff"/>
        <polygon points="970.915 965.709 953.753 965.709 984.686 996.642 967.524 996.642 984.686 1013.804 1019.01 1013.804 1019.009 979.48 1001.848 962.319 1001.848 979.48 970.915 948.547 970.915 965.709" style="fill: #8c28ff"/>
        <polygon points="957.138 1126.248 939.976 1126.248 1022.729 1209.001 1005.568 1209.001 1022.729 1226.163 1057.053 1226.163 1057.053 1191.84 1039.891 1174.678 1039.891 1191.84 957.138 1109.086 957.138 1126.248" style="fill: #8c28ff"/>
        <polygon points="1039.924 913.854 1039.924 931.016 1061.452 909.487 1061.452 926.649 1078.614 909.487 1078.614 875.164 1044.29 875.164 1027.128 892.325 1044.29 892.325 1022.762 913.854 1039.924 913.854" style="fill: #8c28ff"/>
        <polygon points="1152.763 1156.439 1169.925 1156.439 1101.715 1088.228 1118.876 1088.228 1101.715 1071.067 1067.391 1071.067 1067.391 1105.39 1084.553 1122.552 1084.553 1105.39 1152.763 1173.601 1152.763 1156.439" style="fill: #8c28ff"/>
        <polygon points="1182.531 1072.725 1194.667 1084.86 1194.667 1015.482 1206.802 1027.617 1206.802 1003.347 1182.531 979.076 1158.261 1003.346 1158.261 1027.617 1170.396 1015.482 1170.396 1084.86 1182.531 1072.725" style="fill: #8c28ff"/>
        <polygon points="900.516 1079.586 912.651 1091.722 912.651 1055.344 924.786 1067.479 924.786 1043.208 900.516 1018.938 876.245 1043.208 876.245 1067.479 888.381 1055.344 888.381 1091.722 900.516 1079.586" style="fill: #8c28ff"/>
        <polygon points="1041.749 1095.257 1053.885 1083.122 1009.551 1083.122 1021.686 1070.987 997.416 1070.987 973.145 1095.257 997.416 1119.528 1021.686 1119.528 1009.551 1107.393 1053.885 1107.393 1041.749 1095.257" style="fill: #8c28ff"/>
        <polygon points="1085.191 1137.45 1091.258 1131.383 1091.258 1179.535 1097.326 1179.535 1085.191 1191.67 1073.055 1179.535 1079.123 1179.535 1079.123 1131.383 1085.191 1137.45" style="fill: #0f9bff"/>
        <polygon points="1078.692 945.642 1087.273 945.642 1053.181 979.733 1057.471 984.024 1040.31 984.024 1040.31 966.862 1044.6 971.153 1078.692 937.061 1078.692 945.642" style="fill: #0f9bff"/>
        <polygon points="1056.652 1148.953 1062.719 1155.021 1026.16 1155.021 1026.16 1161.088 1014.025 1148.953 1026.16 1136.818 1026.16 1142.886 1062.719 1142.886 1056.652 1148.953" style="fill: #ff4164"/>
        <polygon points="1116.385 1057.384 1107.805 1057.384 1133.656 1031.532 1129.366 1027.242 1146.527 1027.242 1146.527 1044.404 1142.237 1040.113 1116.385 1065.964 1116.385 1057.384" style="fill: #ff4164"/>
        <polygon points="960.938 1032.836 960.938 1041.417 928.086 1008.565 923.796 1012.855 923.795 995.693 940.957 995.694 936.667 999.984 969.519 1032.836 960.938 1032.836" style="fill: #0f9bff"/>
        <polygon points="1037.452 1007.713 1031.385 1001.645 1066.469 1001.645 1066.469 995.578 1078.604 1007.713 1066.469 1019.848 1066.469 1013.781 1031.385 1013.781 1037.452 1007.713" style="fill: #ff4164"/>
      </g>
      <rect x="911.33981" y="911.34039" width="300.22389" height="300.22389" transform="translate(1061.45217 -439.66755) rotate(45)" style="fill: none"/>
    </g>
    <g>
      <g>
        <polygon points="1005.301 1264.624 1011.369 1270.692 1011.369 1238.568 1017.436 1238.568 1005.301 1226.432 993.166 1238.568 999.234 1238.568 999.234 1270.692 1005.301 1264.624" style="fill: #ff4164"/>
        <polygon points="706.89 1221.254 698.31 1221.254 721.275 1244.219 716.984 1248.51 734.146 1248.51 734.146 1231.348 729.856 1235.639 706.89 1212.673 706.89 1221.254" style="fill: #ff4164"/>
        <polygon points="779.48 1220.021 773.412 1226.089 866.833 1226.089 866.833 1232.156 878.968 1220.021 866.833 1207.886 866.833 1213.954 773.412 1213.954 779.48 1220.021" style="fill: #0f9bff"/>
        <polygon points="844.871 1083.164 836.29 1083.164 907.387 1154.26 903.097 1158.551 920.258 1158.551 920.258 1141.389 915.968 1145.68 844.871 1074.583 844.871 1083.164" style="fill: #ff4164"/>
        <polygon points="1011.914 1297.279 1011.914 1305.859 1039.741 1278.033 1044.031 1282.324 1044.031 1265.162 1026.869 1265.162 1031.16 1269.452 1003.334 1297.278 1011.914 1297.279" style="fill: #0f9bff"/>
        <polygon points="958.1 1226.094 958.1 1234.675 977.241 1215.533 981.531 1219.824 981.531 1202.662 964.37 1202.662 968.66 1206.953 949.519 1226.094 958.1 1226.094" style="fill: #0f9bff"/>
        <polygon points="744.847 1208.947 727.686 1208.947 810.439 1126.194 793.277 1126.194 810.439 1109.032 844.762 1109.032 844.762 1143.355 827.601 1160.517 827.601 1143.355 744.847 1226.109 744.847 1208.947" style="fill: #8c28ff"/>
        <polygon points="940.473 1178.756 957.635 1178.756 927.459 1208.932 944.62 1208.932 927.459 1226.094 893.135 1226.094 893.135 1191.771 910.297 1174.609 910.297 1191.771 940.473 1161.594 940.473 1178.756" style="fill: #8c28ff"/>
        <polygon points="970.241 1262.47 982.376 1250.335 982.376 1319.713 994.511 1307.578 994.511 1331.848 970.241 1356.119 945.971 1331.849 945.971 1307.578 958.106 1319.713 958.106 1250.335 970.241 1262.47" style="fill: #8c28ff"/>
        <polygon points="688.225 1255.609 700.36 1243.474 700.36 1279.851 712.496 1267.716 712.496 1291.987 688.225 1316.257 663.955 1291.987 663.955 1267.716 676.09 1279.851 676.09 1243.474 688.225 1255.609" style="fill: #8c28ff"/>
        <polygon points="872.9 1186.253 878.968 1192.321 878.968 1155.66 885.035 1155.66 872.9 1143.525 860.765 1155.66 866.833 1155.66 866.833 1192.321 872.9 1186.253" style="fill: #0f9bff"/>
        <polygon points="844.362 1186.242 850.429 1180.174 813.87 1180.174 813.87 1174.107 801.735 1186.242 813.87 1198.377 813.87 1192.309 850.429 1192.309 844.362 1186.242" style="fill: #ff4164"/>
        <polygon points="734.147 1297.644 740.215 1303.711 740.215 1273.799 746.282 1273.799 734.147 1261.664 722.012 1273.799 728.079 1273.799 728.079 1303.711 734.147 1297.644" style="fill: #0f9bff"/>
        <g>
          <path d="M758.59377,1243.773h19.79461c17.48191,0,20.47876,10.08993,20.47876,16.28347,0,2.59716-.99881,11.28815-6.8928,14.285v.99923c6.09363,2.39731,7.7919,8.49115,7.7919,12.98664,0,7.69175-3.99587,15.38394-21.5777,15.38394H758.59377Zm25.189,17.88182c0-5.095-3.49625-5.4943-7.19256-5.4943h-2.912v11.18844h2.912C780.2865,1267.34893,783.78275,1266.84953,783.78275,1261.65479Zm.8991,23.87509c0-5.29445-3.59639-5.69415-7.49234-5.69415h-3.51136v11.48843h3.51136C781.08546,1291.32416,784.68185,1290.92446,784.68185,1285.52988Z" style="fill: #ff4164"/>
          <path d="M805.99863,1303.71125V1243.773h33.18073v12.78679H821.083v10.78917h12.40219v12.4868H821.083v11.08873h18.09634v12.78679Z" style="fill: #ff4164"/>
          <path d="M893.61535,1303.71125H879.03059l-2.89714-13.08634h-13.701l-2.89692,13.08634h-14.585L858.137,1243.773h22.29206Zm-24.05378-43.85466h-.557l-3.77487,18.28109h8.60618Z" style="fill: #ff4164"/>
          <path d="M898.75894,1243.773h19.69469c19.87943,0,23.07613,15.88378,23.07613,30.1692,0,14.285-3.1967,29.76908-23.07613,29.76908H898.75894Zm27.68644,30.36905c0-11.58813-2.39753-17.58226-7.99175-17.58226h-4.6103v34.3647h4.6103C924.04785,1290.92446,926.44538,1285.82986,926.44538,1274.142Z" style="fill: #ff4164"/>
        </g>
      </g>
      <rect x="699.04946" y="1123.63074" width="300.22389" height="300.22389" transform="translate(-651.95847 973.51839) rotate(-45)" style="fill: none"/>
    </g>
    <rect x="911.33981" y="1335.92109" width="300.22389" height="300.22389" transform="translate(761.22746 3287.37682) rotate(-135)" style="fill: none"/>
    <rect x="486.75911" y="1335.92109" width="300.22389" height="300.22389" transform="translate(36.42286 2987.15292) rotate(-135)" style="fill: none"/>
    <g>
      <g>
        <polygon points="840.043 1005.302 846.11 1011.369 813.986 1011.369 813.986 1017.437 801.851 1005.302 813.986 993.167 813.986 999.234 846.11 999.234 840.043 1005.302" style="fill: #ff4164"/>
        <polygon points="796.673 706.891 796.673 698.31 879.081 780.719 883.372 776.428 883.372 793.59 866.21 793.59 870.501 789.3 788.092 706.891 796.673 706.891" style="fill: #ff4164"/>
        <polygon points="960.848 812.353 952.267 812.353 975.454 789.166 971.163 784.875 988.325 784.875 988.325 802.037 984.035 797.747 960.848 820.933 960.848 812.353" style="fill: #ff4164"/>
        <polygon points="863.893 872.935 857.825 879.003 857.825 820.942 851.758 820.942 863.893 808.807 876.028 820.942 869.96 820.942 869.96 879.003 863.893 872.935" style="fill: #0f9bff"/>
        <polygon points="658.582 844.872 658.582 836.291 729.679 907.388 733.97 903.097 733.97 920.259 716.808 920.259 721.098 915.968 650.001 844.872 658.582 844.872" style="fill: #ff4164"/>
        <polygon points="997.159 887.462 1005.74 887.462 984.145 909.056 988.436 913.347 971.274 913.347 971.274 896.185 975.564 900.476 997.159 878.881 997.159 887.462" style="fill: #ff4164"/>
        <polygon points="872.697 1011.915 881.278 1011.915 853.452 1039.741 857.742 1044.032 840.581 1044.032 840.581 1026.87 844.871 1031.16 872.697 1003.334 872.697 1011.915" style="fill: #0f9bff"/>
        <polygon points="831.107 928.506 839.688 928.506 790.952 977.242 795.243 981.532 778.081 981.532 778.081 964.37 782.371 968.661 831.107 919.925 831.107 928.506" style="fill: #0f9bff"/>
        <polygon points="950.893 933.719 968.055 933.719 931.125 896.788 948.286 896.788 931.125 879.626 896.801 879.626 896.801 913.95 913.963 931.111 913.963 913.95 950.893 950.88 950.893 933.719" style="fill: #8c28ff"/>
        <polygon points="944.905 758.625 944.905 741.464 913.972 772.396 913.972 755.235 896.81 772.396 896.81 806.72 931.134 806.72 948.295 789.558 931.134 789.558 962.066 758.625 944.905 758.625" style="fill: #8c28ff"/>
        <polygon points="784.366 744.848 784.366 727.686 701.612 810.44 701.613 793.278 684.451 810.44 684.451 844.763 718.774 844.763 735.936 827.601 718.774 827.601 801.527 744.848 784.366 744.848" style="fill: #8c28ff"/>
        <polygon points="996.76 827.634 979.598 827.634 1001.127 849.162 983.965 849.162 1001.127 866.324 1035.45 866.324 1035.45 832 1018.288 814.839 1018.288 832 996.76 810.472 996.76 827.634" style="fill: #8c28ff"/>
        <polygon points="754.175 940.474 754.175 957.635 822.385 889.425 822.385 906.586 839.547 889.425 839.547 855.101 805.224 855.101 788.062 872.263 805.224 872.263 737.013 940.474 754.175 940.474" style="fill: #8c28ff"/>
        <polygon points="837.889 970.242 825.754 982.377 895.132 982.377 882.997 994.512 907.267 994.512 931.538 970.242 907.267 945.971 882.997 945.971 895.132 958.106 825.754 958.106 837.889 970.242" style="fill: #8c28ff"/>
        <polygon points="831.027 688.226 818.892 700.361 855.27 700.361 843.135 712.496 867.405 712.496 891.676 688.226 867.405 663.956 843.135 663.956 855.27 676.091 818.892 676.091 831.027 688.226" style="fill: #8c28ff"/>
        <polygon points="815.356 829.46 827.491 841.595 827.491 797.261 839.627 809.396 839.627 785.126 815.356 760.855 791.086 785.126 791.086 809.396 803.221 797.261 803.221 841.595 815.356 829.46" style="fill: #8c28ff"/>
        <polygon points="773.164 872.901 779.231 878.968 731.079 878.968 731.079 885.036 718.943 872.901 731.079 860.766 731.079 866.833 779.231 866.833 773.164 872.901" style="fill: #0f9bff"/>
        <polygon points="964.972 866.402 964.972 874.983 930.88 840.891 926.59 845.182 926.59 828.02 943.752 828.02 939.461 832.31 973.553 866.402 964.972 866.402" style="fill: #0f9bff"/>
        <polygon points="761.66 844.362 755.593 850.43 755.593 813.87 749.525 813.87 761.66 801.735 773.796 813.87 767.728 813.87 767.728 850.43 761.66 844.362" style="fill: #ff4164"/>
        <polygon points="853.23 904.096 853.23 895.515 879.081 921.366 883.372 917.076 883.372 934.237 866.21 934.237 870.501 929.947 844.649 904.096 853.23 904.096" style="fill: #ff4164"/>
        <polygon points="877.778 748.648 869.197 748.648 902.049 715.796 897.759 711.506 914.92 711.506 914.92 728.667 910.63 724.377 877.778 757.229 877.778 748.648" style="fill: #0f9bff"/>
        <polygon points="902.901 825.163 908.968 819.095 908.968 854.179 915.036 854.179 902.901 866.314 890.766 854.179 896.833 854.179 896.833 819.095 902.901 825.163" style="fill: #ff4164"/>
      </g>
      <rect x="699.04946" y="699.05004" width="300.22389" height="300.22389" transform="translate(2050.05739 849.16239) rotate(135)" style="fill: none"/>
    </g>
    <g>
      <g>
        <polygon points="1259.011 1249.969 1265.078 1243.902 1265.078 1301.963 1271.146 1301.963 1259.011 1314.098 1246.876 1301.963 1252.943 1301.963 1252.943 1243.902 1259.011 1249.969" style="fill: #0f9bff"/>
        <polygon points="1125.745 1235.443 1117.164 1235.443 1138.758 1213.848 1134.468 1209.558 1151.63 1209.558 1151.63 1226.72 1147.339 1222.429 1125.745 1244.024 1125.745 1235.443" style="fill: #ff4164"/>
        <polygon points="1250.206 1110.99 1241.625 1110.99 1269.452 1083.164 1265.161 1078.873 1282.323 1078.873 1282.323 1096.035 1278.033 1091.744 1250.206 1119.571 1250.206 1110.99" style="fill: #0f9bff"/>
        <polygon points="1172.01 1189.186 1154.848 1189.186 1191.779 1226.117 1174.617 1226.117 1191.779 1243.278 1226.102 1243.278 1226.102 1208.955 1208.941 1191.793 1208.941 1208.955 1172.01 1172.024 1172.01 1189.186" style="fill: #8c28ff"/>
        <polygon points="1126.144 1295.271 1143.305 1295.271 1121.777 1273.743 1138.939 1273.743 1121.777 1256.581 1087.453 1256.581 1087.453 1290.904 1104.615 1308.066 1104.615 1290.904 1126.144 1312.433 1126.144 1295.271" style="fill: #8c28ff"/>
        <polygon points="1285.015 1152.663 1297.15 1140.528 1227.771 1140.528 1239.907 1128.393 1215.636 1128.393 1191.366 1152.663 1215.636 1176.933 1239.906 1176.933 1227.771 1164.798 1297.15 1164.798 1285.015 1152.663" style="fill: #8c28ff"/>
        <polygon points="1157.931 1256.503 1157.931 1247.922 1192.023 1282.014 1196.314 1277.723 1196.314 1294.885 1179.152 1294.885 1183.442 1290.594 1149.351 1256.503 1157.931 1256.503" style="fill: #0f9bff"/>
        <polygon points="1269.673 1218.809 1269.673 1227.39 1243.822 1201.538 1239.532 1205.829 1239.532 1188.667 1256.693 1188.667 1252.403 1192.958 1278.254 1218.809 1269.673 1218.809" style="fill: #ff4164"/>
        <polygon points="1220.003 1297.742 1213.935 1303.81 1213.935 1268.726 1207.868 1268.726 1220.003 1256.591 1232.138 1268.726 1226.07 1268.726 1226.07 1303.81 1220.003 1297.742" style="fill: #ff4164"/>
      </g>
      <rect x="1123.63016" y="1123.63074" width="300.22389" height="300.22389" transform="translate(-527.60167 1273.74228) rotate(-45)" style="fill: none"/>
    </g>
    <g>
      <g>
        <polygon points="433.699 1117.603 427.632 1111.535 459.756 1111.535 459.756 1105.468 471.891 1117.603 459.756 1129.738 459.756 1123.67 427.632 1123.67 433.699 1117.603" style="fill: #ff4164"/>
        <polygon points="409.849 1249.969 415.917 1243.902 415.917 1301.963 421.984 1301.963 409.849 1314.098 397.714 1301.963 403.782 1301.963 403.782 1243.902 409.849 1249.969" style="fill: #0f9bff"/>
        <polygon points="615.16 1278.033 615.16 1286.614 544.063 1215.517 539.773 1219.807 539.773 1202.646 556.934 1202.646 552.644 1206.936 623.741 1278.033 615.16 1278.033" style="fill: #ff4164"/>
        <polygon points="276.583 1235.443 268.002 1235.443 289.597 1213.848 285.307 1209.558 302.468 1209.558 302.468 1226.72 298.178 1222.429 276.583 1244.024 276.583 1235.443" style="fill: #ff4164"/>
        <polygon points="401.045 1110.99 392.464 1110.99 420.29 1083.164 416 1078.873 433.162 1078.873 433.162 1096.035 428.871 1091.744 401.045 1119.571 401.045 1110.99" style="fill: #0f9bff"/>
        <polygon points="442.635 1194.399 434.054 1194.399 482.79 1145.663 478.499 1141.373 495.661 1141.373 495.661 1158.534 491.371 1154.244 442.635 1202.98 442.635 1194.399" style="fill: #0f9bff"/>
        <polygon points="322.849 1189.186 305.687 1189.186 342.618 1226.117 325.456 1226.117 342.618 1243.278 376.941 1243.278 376.941 1208.955 359.779 1191.793 359.779 1208.955 322.849 1172.024 322.849 1189.186" style="fill: #8c28ff"/>
        <polygon points="276.982 1295.271 294.144 1295.271 272.615 1273.743 289.777 1273.743 272.616 1256.581 238.292 1256.581 238.292 1290.904 255.454 1308.066 255.454 1290.904 276.982 1312.433 276.982 1295.271" style="fill: #8c28ff"/>
        <polygon points="519.567 1182.431 519.567 1165.269 451.357 1233.48 451.357 1216.318 434.195 1233.48 434.195 1267.803 468.518 1267.803 485.68 1250.642 468.518 1250.642 536.729 1182.431 519.567 1182.431" style="fill: #8c28ff"/>
        <polygon points="435.853 1152.663 447.988 1140.528 378.61 1140.528 390.745 1128.393 366.475 1128.393 342.205 1152.663 366.475 1176.933 390.745 1176.933 378.61 1164.798 447.988 1164.798 435.853 1152.663" style="fill: #8c28ff"/>
        <polygon points="500.578 1250.004 494.511 1243.936 542.664 1243.936 542.664 1237.869 554.799 1250.004 542.664 1262.139 542.664 1256.071 494.511 1256.071 500.578 1250.004" style="fill: #0f9bff"/>
        <polygon points="308.77 1256.503 308.77 1247.922 342.862 1282.014 347.152 1277.723 347.152 1294.885 329.991 1294.885 334.281 1290.594 300.189 1256.503 308.77 1256.503" style="fill: #0f9bff"/>
        <polygon points="512.082 1278.543 518.149 1272.475 518.149 1309.034 524.217 1309.034 512.082 1321.169 499.947 1309.034 506.014 1309.034 506.014 1272.475 512.082 1278.543" style="fill: #ff4164"/>
        <polygon points="420.512 1218.809 420.512 1227.39 394.661 1201.538 390.37 1205.829 390.37 1188.667 407.532 1188.667 403.241 1192.958 429.093 1218.809 420.512 1218.809" style="fill: #ff4164"/>
        <polygon points="370.841 1297.742 364.774 1303.81 364.774 1268.726 358.706 1268.726 370.841 1256.591 382.976 1268.726 376.909 1268.726 376.909 1303.81 370.841 1297.742" style="fill: #ff4164"/>
      </g>
      <rect x="274.46876" y="1123.63074" width="300.22389" height="300.22389" transform="translate(-776.31528 673.29449) rotate(-45)" style="fill: none"/>
    </g>
  </g>
</svg>
